<?xml version="1.0" encoding="UTF-8"?>
<svg width="10px" height="10px" viewBox="0 0 10 10" version="1.1" xmlns="http://www.w3.org/2000/svg" xmlns:xlink="http://www.w3.org/1999/xlink">
    <title>call/Incoming</title>
    <g id="call/Incoming" stroke="none" stroke-width="1" fill="none" fill-rule="evenodd">
        <g id="Incoming" transform="translate(3.750000, -0.250000)" fill="#73D910">
            <path d="M4.7126344,0.725141979 L5.77485802,1.7873656 L2.814,4.74714198 L4.00552762,4.74778895 C4.42035175,4.74778895 4.75663314,5.08407035 4.75663314,5.49889448 C4.75663314,5.9137186 4.42035175,6.25 4.00552762,6.25 L0.25,6.25 L0.25,2.49447238 C0.25,2.07964825 0.586281398,1.74336686 1.00110552,1.74336686 C1.41592965,1.74336686 1.75221105,2.07964825 1.75221105,2.49447238 L1.752,3.68414198 L4.7126344,0.725141979 Z" id="Combined-Shape"></path>
        </g>
        <path d="M7.23348136,10 C6.85902137,10 6.40676331,9.90615843 5.90940053,9.71847528 C4.81901664,9.30738865 3.6326717,8.49490226 2.56892683,7.43116263 C1.50487925,6.36712029 0.692388868,5.18047847 0.2809975,4.09009994 C-0.0928570555,3.09870913 -0.0937652042,2.28501189 0.278878486,1.91267275 C0.33245926,1.85909223 0.386948183,1.80157643 0.443253404,1.74224434 C0.78320374,1.38473822 1.16735065,0.982430319 1.67651936,1.0005932 C2.02736748,1.01512351 2.36731782,1.23307813 2.71544149,1.66626294 C3.74407127,2.94553547 3.28031,3.40142388 2.7435941,3.92996384 L2.64884392,4.02380541 C2.57047796,4.10217099 2.42987582,4.43454577 3.49838222,5.60276522 C3.62684612,5.74321738 3.33437218,6.33437299 3.5,6.5 C3.68143283,6.68143194 4.29165898,6.40672678 4.45328243,6.55263267 C4.74038116,6.81181161 4.99533399,7.01416007 5.21496948,7.15690307 C5.43110887,7.29736271 5.81767751,7.50986847 5.97630082,7.35124594 L6.07165644,7.25498265 C6.59959356,6.71948026 7.05548421,6.25723483 8.33385489,7.28495141 C8.76704183,7.63307337 8.9846948,7.97271932 8.99922518,8.32417115 C9.0201126,8.83303464 8.61477556,9.2180878 8.25696496,9.55773375 C8.1979353,9.61403869 8.14041921,9.66852735 8.08683844,9.72180514 C7.90187882,9.90706657 7.60612505,10 7.23348136,10 Z" id="Path-Copy-2" fill="#BABABA"></path>
    </g>
</svg>