<?xml version="1.0" encoding="UTF-8"?>
<svg width="10px" height="10px" viewBox="0 0 10 10" version="1.1" xmlns="http://www.w3.org/2000/svg" xmlns:xlink="http://www.w3.org/1999/xlink">
    <title>call/Outgoing</title>
    <g id="call/Outgoing" stroke="none" stroke-width="1" fill="none" fill-rule="evenodd">
        <g id="Incoming" transform="translate(-0.250000, -0.250000)">
            <path d="M7.48348136,10.25 C7.10902137,10.25 6.65676331,10.1561584 6.15940053,9.96847528 C5.06901664,9.55738865 3.8826717,8.74490226 2.81892683,7.68116263 C1.75487925,6.61712029 0.942388868,5.43047847 0.5309975,4.34009994 C0.157142945,3.34870913 0.156234796,2.53501189 0.528878486,2.16267275 C0.58245926,2.10909223 0.636948183,2.05157643 0.693253404,1.99224434 C1.03320374,1.63473822 1.41735065,1.23243032 1.92651936,1.2505932 C2.27736748,1.26512351 2.61731782,1.48307813 2.96544149,1.91626294 C3.99407127,3.19553547 3.53031,3.65142388 2.9935941,4.17996384 L2.89884392,4.27380541 C2.81105621,4.36159269 2.64516771,4.7681386 4.1884151,6.31137839 C4.69213492,6.81509573 5.12168926,7.1838023 5.46496948,7.40690307 C5.68110887,7.54736271 6.06767751,7.75986847 6.22630082,7.60124594 L6.32165644,7.50498265 C6.84959356,6.96948026 7.30548421,6.50723483 8.58385489,7.53495141 C9.01704183,7.88307337 9.2346948,8.22271932 9.24922518,8.57417115 C9.2701126,9.08303464 8.86477556,9.4680878 8.50696496,9.80773375 C8.4479353,9.86403869 8.39041921,9.91852735 8.33683844,9.97180514 C8.15187882,10.1570666 7.85612505,10.25 7.48348136,10.25 Z" id="Path-Copy-2" fill="#BABABA"></path>
            <path d="M10.25,0.25 L10.25,3.9773896 C10.25,4.38910568 9.91623817,4.72286751 9.50452208,4.72286751 C9.09280599,4.72286751 8.75904416,4.38910568 8.75904416,3.9773896 L8.75828675,2.795 L5.75155173,5.80271325 L4.69728675,4.74844826 L7.70428675,1.74 L6.52261041,1.74095584 C6.11089432,1.74095584 5.77713249,1.407194 5.77713249,0.995477919 C5.77713249,0.583761833 6.11089432,0.25 6.52261041,0.25 L10.25,0.25 Z" id="Combined-Shape" fill="#2F78CA"></path>
        </g>
    </g>
</svg>