<?xml version="1.0" encoding="UTF-8"?>
<svg width="10px" height="10px" viewBox="0 0 10 10" version="1.1" xmlns="http://www.w3.org/2000/svg" xmlns:xlink="http://www.w3.org/1999/xlink">
    <title>call/Missed</title>
    <g id="call/Missed" stroke="none" stroke-width="1" fill="none" fill-rule="evenodd">
        <path d="M7.41191976,12.6763445 C7.09986977,12.6763445 6.72298805,12.5981432 6.30851907,12.4417406 C5.61880237,12.1817099 4.75267138,11.705321 3.98765053,11.1031703 C3.74481021,10.9120299 3.94629136,10.2738373 3.73270362,10.0602507 C3.49301244,9.82056065 2.83147217,9.99123545 2.62045123,9.71606481 C2.05082769,8.97327753 1.60060155,8.14694693 1.35044691,7.48392075 C1.03890144,6.65776174 1.03814465,5.9796807 1.34868106,5.66939808 C1.39333171,5.62474766 1.43873914,5.57681782 1.48566016,5.52737441 C1.76895211,5.22945265 2.08907453,4.89419606 2.51338179,4.9093318 C2.80575522,4.92144039 3.08904717,5.10306924 3.37915023,5.46405658 C4.23634172,6.53011702 3.84987399,6.91002403 3.40261074,7.35047399 L3.32365226,7.42867531 C3.25049583,7.50183137 3.15377092,8.06711071 4.43981041,9.35314388 C4.85957692,9.77290833 5.44375968,10.1211798 5.72982653,10.3070971 C5.90994269,10.4241468 6.23208322,10.6012349 6.36426931,10.4690495 L6.44373232,10.3888301 C6.88367992,9.94257809 7.2635888,9.55737357 8.3288977,10.413804 C8.68988682,10.7039057 8.8712643,10.986944 8.88337295,11.2798205 C8.90077913,11.7038734 8.56299826,12.024751 8.26482277,12.3077893 C8.21563138,12.3547101 8.16770131,12.4001173 8.12305066,12.4445155 C7.96891764,12.5989 7.72245617,12.6763445 7.41191976,12.6763445 Z" id="Path-Copy-2" fill="#BABABA" transform="translate(5.000150, 8.792591) rotate(-225.000000) translate(-5.000150, -8.792591) "></path>
        <path d="M5,4.25 C5,4.66421356 4.66421356,5 4.25,5 C3.83578644,5 3.5,4.66421356 3.5,4.25 L3.5,1.5 L0.75,1.5 C0.335786437,1.5 -4.31274572e-10,1.16421356 -4.31274572e-10,0.75 C-4.31274572e-10,0.335786437 0.335786437,-3.83209908e-10 0.75,-3.83209908e-10 L5,-3.83209908e-10 L5,4.25 Z" id="Combined-Shape" fill="#E51212" transform="translate(2.500000, 2.500000) rotate(-90.000000) translate(-2.500000, -2.500000) "></path>
        <line x1="1.5" y1="1.5" x2="5" y2="5" id="Line-5" stroke="#E51212" stroke-width="1.5" stroke-linecap="square"></line>
        <line x1="5" y1="5" x2="8.5" y2="1.5" id="Line" stroke="#E51212" stroke-width="1.5" stroke-linecap="square"></line>
    </g>
</svg>