<?xml version="1.0" encoding="UTF-8"?>
<svg width="13px" height="13px" viewBox="0 0 13 13" version="1.1" xmlns="http://www.w3.org/2000/svg" xmlns:xlink="http://www.w3.org/1999/xlink">
    <title>custom</title>
    <g id="custom" stroke="none" stroke-width="1" fill="none" fill-rule="evenodd">
        <g transform="translate(1.000000, 2.000000)" stroke="#2F78CA">
            <path d="M5.5,-0.5 C7.71906224,-0.5 9.17430212,-0.250425358 10.0839363,0.328432773 C11.0623226,0.951042243 11.5,1.93531834 11.5,3.5 C11.5,5.02919462 10.9596376,6.01728264 9.88203274,6.64588548 C8.84856166,7.24874362 7.24765176,7.5 5,7.5 C4.25756613,7.5 3.54302337,7.8498193 1.75856201,8.92795524 C1.64516557,8.9964671 1.0737293,9.00121854 -0.196061432,8.45995643 C-0.511416564,8.32553287 -0.772647935,8.19886333 -0.987461737,8.08244399 C-0.784533758,7.96393943 -0.559155213,7.80419879 -0.309626511,7.60740425 C0.0616301423,7.31460714 0.340662392,7.05468196 0.515379961,6.81897513 C-0.308479981,5.27358812 -0.5,4.5063989 -0.5,3.5 C-0.5,1.93531834 -0.0623226339,0.951042243 0.916063676,0.328432773 C1.82569788,-0.250425358 3.28093776,-0.5 5.5,-0.5 Z" id="Oval" fill="#FFFFFF" fill-rule="nonzero" stroke-linejoin="round"></path>
            <line x1="2.5" y1="2.5" x2="8.5" y2="2.5" id="Line" stroke-linecap="square"></line>
            <line x1="2.5" y1="4.5" x2="6.5" y2="4.5" id="Line-Copy" stroke-linecap="square"></line>
        </g>
    </g>
</svg>