<?xml version="1.0" encoding="UTF-8"?>
<svg width="21px" height="21px" viewBox="0 0 21 21" version="1.1" xmlns="http://www.w3.org/2000/svg" xmlns:xlink="http://www.w3.org/1999/xlink">
    <title>button-bug</title>
    <defs>
        <path d="M-7.81250001e-05,7.10542736e-15 L18.9999219,7.10542736e-15 L18.9999219,19 L8.99992187,19 L8.99992187,13 C8.99992187,11.3431458 7.65677612,10 5.99992187,10 L-7.81250001e-05,10 L-7.81250001e-05,10 L-7.81250001e-05,7.10542736e-15 Z" id="path-1"></path>
    </defs>
    <g id="button-bug" stroke="none" stroke-width="1" fill="none" fill-rule="evenodd">
        <g id="Group" transform="translate(1.000078, 1.000000)">
            <mask id="mask-2" fill="white">
                <use xlink:href="#path-1"></use>
            </mask>
            <g id="Mask" fill-rule="nonzero"></g>
            <path d="M13,7.5 C13.4142136,7.5 13.7892136,7.66789322 14.0606602,7.93933983 C14.3321068,8.21078644 14.5,8.58578644 14.5,9 L14.5,9 L14.5,13.5 C14.5,14.8807119 13.9403559,16.1307119 13.0355339,17.0355339 C12.1307119,17.9403559 10.8807119,18.5 9.5,18.5 C8.11928813,18.5 6.86928813,17.9403559 5.96446609,17.0355339 C5.05964406,16.1307119 4.5,14.8807119 4.5,13.5 L4.5,13.5 L4.5,9 C4.5,8.58578644 4.66789322,8.21078644 4.93933983,7.93933983 C5.21078644,7.66789322 5.58578644,7.5 6,7.5 L6,7.5 Z" id="Rectangle" stroke="#FFFFFF" mask="url(#mask-2)"></path>
            <path d="M12,3.5 C12.4142136,3.5 12.7892136,3.66789322 13.0606602,3.93933983 C13.3321068,4.21078644 13.5,4.58578644 13.5,5 L13.5,5 L13.5,6 C13.5,6.41421356 13.3321068,6.78921356 13.0606602,7.06066017 C12.7892136,7.33210678 12.4142136,7.5 12,7.5 L12,7.5 L7,7.5 C6.58578644,7.5 6.21078644,7.33210678 5.93933983,7.06066017 C5.66789322,6.78921356 5.5,6.41421356 5.5,6 L5.5,6 L5.5,5 C5.5,4.58578644 5.66789322,4.21078644 5.93933983,3.93933983 C6.21078644,3.66789322 6.58578644,3.5 7,3.5 L7,3.5 L12,3.5 Z" id="Rectangle" stroke="#FFFFFF" mask="url(#mask-2)" transform="translate(9.500000, 5.500000) scale(1, -1) translate(-9.500000, -5.500000) "></path>
        </g>
        <path d="M15.5,13.5 C17.5,13.5 18.5,15.5 18.5,17.5" id="Path-2" stroke="#FFFFFF"></path>
        <path d="M15.5,4.5 C17.5,4.5 18.5,6.5 18.5,8.5" id="Path-2" stroke="#FFFFFF" transform="translate(17.000000, 6.500000) scale(1, -1) translate(-17.000000, -6.500000) "></path>
        <path d="M2.5,4.5 C4.5,4.5 5.5,6.5 5.5,8.5" id="Path-2-Copy-2" stroke="#FFFFFF" transform="translate(4.000000, 6.500000) scale(-1, -1) translate(-4.000000, -6.500000) "></path>
        <path d="M7.58706371,2.51224933 C8.005248,3.04202553 8.27906759,3.73069234 8.40852247,4.468546" id="Path-2-Copy-4" stroke="#FFFFFF" transform="translate(7.997793, 3.490398) scale(-1, -1) translate(-7.997793, -3.490398) "></path>
        <path d="M15.5,10.5 C16.1666667,10.5 17.5,10.5 19.5,10.5" id="Path-3" stroke="#FFFFFF"></path>
        <path d="M1.5,10.5 C2.16666667,10.5 3.5,10.5 5.5,10.5" id="Path-3-Copy" stroke="#FFFFFF" transform="translate(3.500000, 10.500000) scale(-1, 1) translate(-3.500000, -10.500000) "></path>
        <path d="M12.6782863,2.58090476 C13.0354192,3.07638228 13.2761394,3.69371108 13.4004468,4.35345272" id="Path-2-Copy-3" stroke="#FFFFFF" transform="translate(13.039367, 3.467179) scale(1, -1) translate(-13.039367, -3.467179) "></path>
        <path d="M4.5,12 C6.98528137,12 9,14.0147186 9,16.5 C9,18.9852814 6.98528137,21 4.5,21 C2.01471863,21 3.04359188e-16,18.9852814 0,16.5 C-3.04359188e-16,14.0147186 2.01471863,12 4.5,12 Z M6.5,14 L3,14 C2.72385763,14 2.5,14.2238576 2.5,14.5 C2.5,14.7761424 2.72385763,15 3,15 L3,15 L5.292,15 L1.90380592,18.3890873 C1.73023957,18.5626536 1.71095442,18.832078 1.84595047,19.0269462 L1.90380592,19.0961941 C2.09906807,19.2914562 2.41565056,19.2914562 2.6109127,19.0961941 L2.6109127,19.0961941 L6,15.706 L6,18 C6,18.2454599 6.17687516,18.4496084 6.41012437,18.4919443 L6.5,18.5 C6.77614237,18.5 7,18.2761424 7,18 L7,18 L7,14.5 C7,14.4931817 6.99986352,14.4863952 6.99959315,14.4796432 C6.99893824,14.4629328 6.99734289,14.445461 6.99483331,14.4280959 C6.99320625,14.4166163 6.99123323,14.405629 6.98890777,14.3947723 C6.98523989,14.377823 6.98065202,14.3607891 6.97515072,14.3439891 C6.97126357,14.3320602 6.96694189,14.3204049 6.96220776,14.3089634 C6.95664853,14.2954611 6.95025039,14.2817243 6.94319503,14.2682418 C6.93670666,14.2559533 6.92998066,14.2443175 6.92281199,14.2329897 L6.91140884,14.2156945 L6.91140884,14.2156945 L6.89841727,14.1978561 C6.88807975,14.1842458 6.8770608,14.1711813 6.86541125,14.1587136 L6.85355339,14.1464466 C6.84946578,14.142359 6.845325,14.138357 6.84113328,14.1344405 C6.82881868,14.1229392 6.81575424,14.1119203 6.80214392,14.1015827 C6.79060915,14.0927745 6.77883464,14.0846093 6.76680652,14.077007 C6.75568247,14.0700193 6.74404667,14.0632933 6.73212724,14.0570343 C6.71827569,14.0497496 6.70453886,14.0433515 6.6905951,14.0376106 C6.67802507,14.0324085 6.66473685,14.0275581 6.65119917,14.0232684 C6.63583471,14.018448 6.62047425,14.0143961 6.60498705,14.0110857 L6.58987563,14.0080557 L6.58987563,14.0080557 L6.57391777,14.0054619 C6.55323734,14.0023875 6.53240118,14.000611 6.51154077,14.0001324 L6.5,14 L6.5,14 Z" id="Combined-Shape" fill="#FFFFFF"></path>
    </g>
</svg>