<?xml version="1.0" encoding="UTF-8"?>
<svg width="21px" height="21px" viewBox="0 0 21 21" version="1.1" xmlns="http://www.w3.org/2000/svg" xmlns:xlink="http://www.w3.org/1999/xlink">
    <title>button-voicemail</title>
    <defs>
        <path d="M0,0 L19,0 L19,19 L9,19 L9,13 C9,11.3431458 7.65685425,10 6,10 L0,10 L0,10 L0,0 Z" id="path-1"></path>
    </defs>
    <g id="button-voicemail" stroke="none" stroke-width="1" fill="none" fill-rule="evenodd">
        <g id="Combined-Shape-Copy-+-Oval-+-Oval-Copy-2-+-Line-2-Mask" transform="translate(1.000000, 1.000000)">
            <mask id="mask-2" fill="white">
                <use xlink:href="#path-1"></use>
            </mask>
            <g id="Mask"></g>
            <path d="M9.5,0.5 C11.9852814,0.5 14.2352814,1.50735932 15.863961,3.13603897 C17.4926407,4.76471862 18.5,7.01471862 18.5,9.5 C18.5,11.9852814 17.4926407,14.2352814 15.863961,15.863961 C14.2352814,17.4926407 11.9852814,18.5 9.5,18.5 C7.01471862,18.5 4.76471862,17.4926407 3.13603897,15.863961 C1.50735932,14.2352814 0.5,11.9852814 0.5,9.5 C0.5,7.01471862 1.50735932,4.76471862 3.13603897,3.13603897 C4.76471862,1.50735932 7.01471862,0.5 9.5,0.5 Z" id="Combined-Shape-Copy" stroke="#FFFFFF" mask="url(#mask-2)"></path>
            <circle id="Oval" stroke="#FFFFFF" mask="url(#mask-2)" cx="5.5" cy="10" r="2.5"></circle>
            <circle id="Oval-Copy-2" stroke="#FFFFFF" mask="url(#mask-2)" cx="13.5" cy="10" r="2.5"></circle>
            <rect id="Rectangle" fill="#FFFFFF" mask="url(#mask-2)" x="6" y="12" width="8" height="1"></rect>
        </g>
        <path d="M4.5,12 C6.98528137,12 9,14.0147186 9,16.5 C9,18.9852814 6.98528137,21 4.5,21 C2.01471863,21 3.04359188e-16,18.9852814 0,16.5 C-3.04359188e-16,14.0147186 2.01471863,12 4.5,12 Z M6.5,14 L3,14 C2.72385763,14 2.5,14.2238576 2.5,14.5 C2.5,14.7761424 2.72385763,15 3,15 L3,15 L5.292,15 L1.90380592,18.3890873 C1.73023957,18.5626536 1.71095442,18.832078 1.84595047,19.0269462 L1.90380592,19.0961941 C2.09906807,19.2914562 2.41565056,19.2914562 2.6109127,19.0961941 L2.6109127,19.0961941 L6,15.706 L6,18 C6,18.2454599 6.17687516,18.4496084 6.41012437,18.4919443 L6.5,18.5 C6.77614237,18.5 7,18.2761424 7,18 L7,18 L7,14.5 C7,14.4931817 6.99986352,14.4863952 6.99959315,14.4796432 C6.99893824,14.4629328 6.99734289,14.445461 6.99483331,14.4280959 C6.99320625,14.4166163 6.99123323,14.405629 6.98890777,14.3947723 C6.98523989,14.377823 6.98065202,14.3607891 6.97515072,14.3439891 C6.97126357,14.3320602 6.96694189,14.3204049 6.96220776,14.3089634 C6.95664853,14.2954611 6.95025039,14.2817243 6.94319503,14.2682418 C6.93670666,14.2559533 6.92998066,14.2443175 6.92281199,14.2329897 L6.91140884,14.2156945 L6.91140884,14.2156945 L6.89841727,14.1978561 C6.88807975,14.1842458 6.8770608,14.1711813 6.86541125,14.1587136 L6.85355339,14.1464466 C6.84946578,14.142359 6.845325,14.138357 6.84113328,14.1344405 C6.82881868,14.1229392 6.81575424,14.1119203 6.80214392,14.1015827 C6.79060915,14.0927745 6.77883464,14.0846093 6.76680652,14.077007 C6.75568247,14.0700193 6.74404667,14.0632933 6.73212724,14.0570343 C6.71827569,14.0497496 6.70453886,14.0433515 6.6905951,14.0376106 C6.67802507,14.0324085 6.66473685,14.0275581 6.65119917,14.0232684 C6.63583471,14.018448 6.62047425,14.0143961 6.60498705,14.0110857 L6.58987563,14.0080557 L6.58987563,14.0080557 L6.57391777,14.0054619 C6.55323734,14.0023875 6.53240118,14.000611 6.51154077,14.0001324 L6.5,14 L6.5,14 Z" id="Combined-Shape" fill="#FFFFFF"></path>
    </g>
</svg>