<?xml version="1.0" encoding="UTF-8"?>
<svg width="21px" height="21px" viewBox="0 0 21 21" version="1.1" xmlns="http://www.w3.org/2000/svg" xmlns:xlink="http://www.w3.org/1999/xlink">
    <title>button-feedback</title>
    <defs>
        <path d="M-7.81250001e-05,7.10542736e-15 L20.9999219,7.10542736e-15 L20.9999219,19 L9.99992187,19 L9.99992187,13 C9.99992187,11.3431458 8.65677612,10 6.99992187,10 L-7.81250001e-05,10 L-7.81250001e-05,10 L-7.81250001e-05,7.10542736e-15 Z" id="path-1"></path>
    </defs>
    <g id="button-feedback" stroke="none" stroke-width="1" fill="none" fill-rule="evenodd">
        <g id="Group" transform="translate(0.000078, 1.000000)">
            <mask id="mask-2" fill="white">
                <use xlink:href="#path-1"></use>
            </mask>
            <g id="Mask" fill-rule="nonzero"></g>
            <path d="M18.2021859,3.50000805 C18.5601225,3.50128334 18.8841026,3.65409692 19.1188718,3.90067745 C19.3542482,4.14789565 19.4999219,4.48939813 19.4999219,4.86666667 L19.4999219,15.1333333 C19.4999219,15.5106019 19.3542482,15.8521044 19.1188718,16.0993226 C18.8831156,16.3469398 18.5573966,16.5000492 18.2043314,16.5000492 L4.65217448,16.3 C4.2924472,16.3 3.96672819,16.1469398 3.73097188,15.8993226 C3.49559552,15.6521044 3.34992188,15.3106019 3.34992188,14.9333333 L3.34992188,6.77996151 L0.499921875,3.50000805 L18.2021859,3.50000805 Z" id="Rectangle" stroke="#FFFFFF" mask="url(#mask-2)"></path>
            <path d="M11.6884465,11.781057 L11.9015612,5 L10.0873536,5 L10.2895394,11.781057 L11.6884465,11.781057 Z M11.0053864,15 C11.3004683,15 11.5399948,14.8924731 11.7239656,14.6774194 C11.9079365,14.4623656 11.9999219,14.1901167 11.9999219,13.8606726 C11.9999219,13.5358042 11.9070257,13.266987 11.7212334,13.054221 C11.535441,12.841455 11.2968254,12.7350721 11.0053864,12.7350721 C10.7175904,12.7350721 10.478064,12.8403111 10.2868071,13.0507893 C10.0955503,13.2612674 9.99992187,13.5312286 9.99992187,13.8606726 C9.99992187,14.1763898 10.0946396,14.445207 10.2840749,14.6671242 C10.4735102,14.8890414 10.7139474,15 11.0053864,15 Z" id="!" fill="#FFFFFF" fill-rule="nonzero" mask="url(#mask-2)"></path>
        </g>
        <path d="M4.5,12 C6.98528137,12 9,14.0147186 9,16.5 C9,18.9852814 6.98528137,21 4.5,21 C2.01471863,21 3.04359188e-16,18.9852814 0,16.5 C-3.04359188e-16,14.0147186 2.01471863,12 4.5,12 Z M6.5,14 L3,14 C2.72385763,14 2.5,14.2238576 2.5,14.5 C2.5,14.7761424 2.72385763,15 3,15 L3,15 L5.292,15 L1.90380592,18.3890873 C1.73023957,18.5626536 1.71095442,18.832078 1.84595047,19.0269462 L1.90380592,19.0961941 C2.09906807,19.2914562 2.41565056,19.2914562 2.6109127,19.0961941 L2.6109127,19.0961941 L6,15.706 L6,18 C6,18.2454599 6.17687516,18.4496084 6.41012437,18.4919443 L6.5,18.5 C6.77614237,18.5 7,18.2761424 7,18 L7,18 L7,14.5 C7,14.4931817 6.99986352,14.4863952 6.99959315,14.4796432 C6.99893824,14.4629328 6.99734289,14.445461 6.99483331,14.4280959 C6.99320625,14.4166163 6.99123323,14.405629 6.98890777,14.3947723 C6.98523989,14.377823 6.98065202,14.3607891 6.97515072,14.3439891 C6.97126357,14.3320602 6.96694189,14.3204049 6.96220776,14.3089634 C6.95664853,14.2954611 6.95025039,14.2817243 6.94319503,14.2682418 C6.93670666,14.2559533 6.92998066,14.2443175 6.92281199,14.2329897 L6.91140884,14.2156945 L6.91140884,14.2156945 L6.89841727,14.1978561 C6.88807975,14.1842458 6.8770608,14.1711813 6.86541125,14.1587136 L6.85355339,14.1464466 C6.84946578,14.142359 6.845325,14.138357 6.84113328,14.1344405 C6.82881868,14.1229392 6.81575424,14.1119203 6.80214392,14.1015827 C6.79060915,14.0927745 6.77883464,14.0846093 6.76680652,14.077007 C6.75568247,14.0700193 6.74404667,14.0632933 6.73212724,14.0570343 C6.71827569,14.0497496 6.70453886,14.0433515 6.6905951,14.0376106 C6.67802507,14.0324085 6.66473685,14.0275581 6.65119917,14.0232684 C6.63583471,14.018448 6.62047425,14.0143961 6.60498705,14.0110857 L6.58987563,14.0080557 L6.58987563,14.0080557 L6.57391777,14.0054619 C6.55323734,14.0023875 6.53240118,14.000611 6.51154077,14.0001324 L6.5,14 L6.5,14 Z" id="Combined-Shape" fill="#FFFFFF"></path>
    </g>
</svg>