<svg width="13" height="13" viewBox="0 0 13 13" fill="none" xmlns="http://www.w3.org/2000/svg">
<path d="M6.5 12.5C9.81371 12.5 12.5 9.81371 12.5 6.5C12.5 3.18629 9.81371 0.5 6.5 0.5C3.18629 0.5 0.5 3.18629 0.5 6.5C0.5 9.81371 3.18629 12.5 6.5 12.5Z" stroke="#2F78CA"/>
<path d="M5.7105 10.007V7.7165H6.6195C7.0425 7.7165 7.4115 7.664 7.7265 7.559C8.0415 7.454 8.304 7.307 8.514 7.118C8.724 6.929 8.8815 6.70325 8.9865 6.44075C9.0915 6.17825 9.144 5.8895 9.144 5.5745C9.144 5.2715 9.0945 4.9925 8.9955 4.7375C8.8965 4.4825 8.7435 4.2635 8.5365 4.0805C8.3295 3.8975 8.067 3.755 7.749 3.653C7.431 3.551 7.0545 3.5 6.6195 3.5H4.5V10.007H5.7105ZM6.6195 6.7715H5.7105V4.436H6.6195C6.8415 4.436 7.035 4.46225 7.2 4.51475C7.365 4.56725 7.5015 4.643 7.6095 4.742C7.7175 4.841 7.7985 4.961 7.8525 5.102C7.9065 5.243 7.9335 5.4005 7.9335 5.5745C7.9335 5.7575 7.9065 5.92325 7.8525 6.07175C7.7985 6.22025 7.7175 6.34625 7.6095 6.44975C7.5015 6.55325 7.365 6.63275 7.2 6.68825C7.035 6.74375 6.8415 6.7715 6.6195 6.7715Z" fill="#2F78CA"/>
</svg>
