<svg width="13" height="13" viewBox="0 0 13 13" fill="none" xmlns="http://www.w3.org/2000/svg">
<path d="M6.5 12.5C9.81371 12.5 12.5 9.81371 12.5 6.5C12.5 3.18629 9.81371 0.5 6.5 0.5C3.18629 0.5 0.5 3.18629 0.5 6.5C0.5 9.81371 3.18629 12.5 6.5 12.5Z" stroke="#2F78CA"/>
<path d="M5.8833 7.5835C5.854 7.50732 5.83057 7.42236 5.81299 7.32861C5.79834 7.23193 5.79102 7.14111 5.79102 7.05615C5.79102 6.92139 5.8042 6.79834 5.83057 6.68701C5.85693 6.57568 5.89648 6.47168 5.94922 6.375C6.00195 6.27539 6.06787 6.18164 6.14697 6.09375C6.22607 6.00293 6.31836 5.91357 6.42383 5.82568C6.53516 5.73193 6.63184 5.64551 6.71387 5.56641C6.79883 5.48438 6.87061 5.40381 6.9292 5.32471C6.98779 5.24268 7.03174 5.15918 7.06104 5.07422C7.09033 4.98633 7.10498 4.88965 7.10498 4.78418C7.10498 4.69336 7.08887 4.60986 7.05664 4.53369C7.02441 4.45459 6.97754 4.38721 6.91602 4.33154C6.85742 4.27588 6.78418 4.23193 6.69629 4.19971C6.61133 4.16748 6.51611 4.15137 6.41064 4.15137C6.18213 4.15137 5.94482 4.19971 5.69873 4.29639C5.45264 4.39014 5.21973 4.53369 5 4.72705V3.4043C5.22559 3.26953 5.47168 3.16846 5.73828 3.10107C6.00488 3.03369 6.28027 3 6.56445 3C6.83691 3 7.09033 3.03076 7.32471 3.09229C7.55908 3.15088 7.7627 3.24463 7.93555 3.37354C8.11133 3.50244 8.24756 3.66797 8.34424 3.87012C8.44385 4.06934 8.49365 4.30957 8.49365 4.59082C8.49365 4.76953 8.47314 4.93213 8.43213 5.07861C8.39111 5.22217 8.33105 5.3584 8.25195 5.4873C8.17285 5.61621 8.07471 5.74072 7.95752 5.86084C7.84033 5.97803 7.70557 6.09961 7.55322 6.22559C7.45068 6.31055 7.35986 6.38965 7.28076 6.46289C7.20459 6.53613 7.14014 6.60938 7.0874 6.68262C7.0376 6.75293 6.99951 6.8291 6.97314 6.91113C6.94678 6.99023 6.93359 7.08105 6.93359 7.18359C6.93359 7.25391 6.94238 7.32568 6.95996 7.39893C6.98047 7.47217 7.00684 7.53369 7.03906 7.5835H5.8833ZM6.5249 9.5083C6.29053 9.5083 6.0957 9.43799 5.94043 9.29736C5.78516 9.15088 5.70752 8.97803 5.70752 8.77881C5.70752 8.57373 5.78516 8.40234 5.94043 8.26465C6.0957 8.12695 6.29053 8.05811 6.5249 8.05811C6.75635 8.05811 6.94824 8.12695 7.10059 8.26465C7.25293 8.39941 7.3291 8.5708 7.3291 8.77881C7.3291 8.98975 7.25439 9.16406 7.10498 9.30176C6.95264 9.43945 6.75928 9.5083 6.5249 9.5083Z" fill="#2F78CA"/>
</svg>
