<?xml version="1.0" encoding="UTF-8"?>
<svg width="13px" height="13px" viewBox="0 0 13 13" version="1.1" xmlns="http://www.w3.org/2000/svg" xmlns:xlink="http://www.w3.org/1999/xlink">
    <title>menu-add-contact</title>
    <g id="menu-add-contact" stroke="none" stroke-width="1" fill="none" fill-rule="evenodd">
        <g id="tab-contacts-active-copy" fill="#2F78CA" fill-rule="nonzero">
            <g id="Group">
                <path d="M13,11.1491878 C12.5041447,9.54540129 11.4325046,8.59261387 10.0271458,8.07404266 C9.81627311,7.99623161 7.52328712,8.41777016 6.5,8.41777016 C5.50834798,8.41777016 3.26828357,7.93448404 3.05085685,8.00751539 C1.59890931,8.49520907 0.494755674,9.43734842 0,11.1347164 C1.54634112,12 4.26780563,12 6.50872767,12 C8.89730465,12 11.4886057,12 13,11.1491878 Z" id="Oval-5-Copy-4"></path>
                <path d="M6.49648315,7 C9.63657037,7 8.97534458,5.45681589 8.87225344,3.55320181 C8.76916222,1.64958774 7.84883058,0 6.5098847,0 C5.17093884,0 4.24564727,1.64958774 4.13478453,3.55320181 C4.02392179,5.45681589 3.35639595,7 6.49648315,7 Z" id="Oval-5-Copy-5"></path>
            </g>
        </g>
    </g>
</svg>