<?xml version="1.0" encoding="UTF-8"?>
<svg width="13px" height="13px" viewBox="0 0 13 13" version="1.1" xmlns="http://www.w3.org/2000/svg" xmlns:xlink="http://www.w3.org/1999/xlink">
    <title>menu-settings</title>
    <g id="DUIR-1669---SETTINGS" stroke="none" stroke-width="1" fill="none" fill-rule="evenodd">
        <g id="Combined-Shape" stroke="#2F78CA">
            <path d="M7,0.5 C7.27614237,0.5 7.5,0.723857625 7.5,1 L7.5011864,1.60025909 C8.13913436,1.72991739 8.73295323,1.98104106 9.25744781,2.3284349 L9.68198052,1.90380592 C9.87724266,1.70854378 10.1938252,1.70854378 10.3890873,1.90380592 L11.0961941,2.6109127 C11.2914562,2.80617485 11.2914562,3.12275734 11.0961941,3.31801948 L10.6715651,3.74255219 C11.0189589,4.26704677 11.2700826,4.86086564 11.3997409,5.4988136 L12,5.5 C12.2761424,5.5 12.5,5.72385763 12.5,6 L12.5,7 C12.5,7.27614237 12.2761424,7.5 12,7.5 L11.3999437,7.50018797 C11.2703446,8.13851479 11.0191402,8.73267962 10.6715651,9.25744781 L11.0961941,9.68198052 C11.2914562,9.87724266 11.2914562,10.1938252 11.0961941,10.3890873 L10.3890873,11.0961941 C10.1938252,11.2914562 9.87724266,11.2914562 9.68198052,11.0961941 L9.25744781,10.6715651 C8.73295323,11.0189589 8.13913436,11.2700826 7.5011864,11.3997409 L7.5,12 C7.5,12.2761424 7.27614237,12.5 7,12.5 L6,12.5 C5.72385763,12.5 5.5,12.2761424 5.5,12 L5.49981203,11.3999437 C4.86148521,11.2703446 4.26732038,11.0191402 3.74255219,10.6715651 L3.31801948,11.0961941 C3.12275734,11.2914562 2.80617485,11.2914562 2.6109127,11.0961941 L1.90380592,10.3890873 C1.70854378,10.1938252 1.70854378,9.87724266 1.90380592,9.68198052 L2.3284349,9.25744781 C1.98085984,8.73267962 1.72965541,8.13851479 1.60005628,7.50018797 L1,7.5 C0.723857625,7.5 0.5,7.27614237 0.5,7 L0.5,6 C0.5,5.72385763 0.723857625,5.5 1,5.5 L1.60025909,5.4988136 C1.72991739,4.86086564 1.98104106,4.26704677 2.3284349,3.74255219 L1.90380592,3.31801948 C1.70854378,3.12275734 1.70854378,2.80617485 1.90380592,2.6109127 L2.6109127,1.90380592 C2.80617485,1.70854378 3.12275734,1.70854378 3.31801948,1.90380592 L3.74255219,2.3284349 C4.26732038,1.98085984 4.86148521,1.72965541 5.49981203,1.60005628 L5.5,1 C5.5,0.723857625 5.72385763,0.5 6,0.5 L7,0.5 Z M6.5,4.5 C5.3954305,4.5 4.5,5.3954305 4.5,6.5 C4.5,7.6045695 5.3954305,8.5 6.5,8.5 C7.6045695,8.5 8.5,7.6045695 8.5,6.5 C8.5,5.3954305 7.6045695,4.5 6.5,4.5 Z"></path>
        </g>
    </g>
</svg>