<svg width="13" height="13" viewBox="0 0 13 13" fill="none" xmlns="http://www.w3.org/2000/svg">
<path d="M7.25 5.7355C7.25 5.18322 6.91421 5 6.5 5C6.08579 5 5.75 5.18322 5.75 5.7355V9.21398C5.75 9.76627 6.08579 10 6.5 10C6.91421 10 7.25 9.76627 7.25 9.21398V5.7355Z" fill="#2F78CA"/>
<path d="M6.5 4.5C6.91421 4.5 7.25 4.16421 7.25 3.75C7.25 3.33579 6.91421 3 6.5 3C6.08579 3 5.75 3.33579 5.75 3.75C5.75 4.16421 6.08579 4.5 6.5 4.5Z" fill="#2F78CA"/>
<path d="M6.5 12.5C9.81371 12.5 12.5 9.81371 12.5 6.5C12.5 3.18629 9.81371 0.5 6.5 0.5C3.18629 0.5 0.5 3.18629 0.5 6.5C0.5 9.81371 3.18629 12.5 6.5 12.5Z" stroke="#2F78CA"/>
</svg>
