<svg width="13" height="13" viewBox="0 0 13 13" fill="none" xmlns="http://www.w3.org/2000/svg">
<path fill-rule="evenodd" clip-rule="evenodd" d="M6.04459 1C6.26756 1 6.4877 1.01098 6.70441 1.03239C8.44396 1.20422 10.2894 1.60328 12.2408 2.22954C12.7821 2.40324 13.0975 2.93199 12.9729 3.45668L12.916 3.69606C12.2984 6.29412 11.9453 7.73413 11.8566 8.0161C11.1332 10.3164 8.80499 13 6.04459 13C2.70626 13 0 10.0614 0 7.02381C0 3.98624 2.70626 1 6.04459 1ZM5.75016 8.07143H2.85084C2.54309 8.07143 2.2936 8.30595 2.2936 8.59524C2.2936 8.88453 2.54309 9.11905 2.85084 9.11905H5.75016C6.05792 9.11905 6.3074 8.88453 6.3074 8.59524C6.3074 8.30595 6.05792 8.07143 5.75016 8.07143ZM9.76396 5.97619H2.27744C1.96969 5.97619 1.7202 6.21071 1.7202 6.5C1.7202 6.78929 1.96969 7.02381 2.27744 7.02381H9.76396C10.0717 7.02381 10.3212 6.78929 10.3212 6.5C10.3212 6.21071 10.0717 5.97619 9.76396 5.97619ZM7.47036 3.88095H3.42424C3.11649 3.88095 2.867 4.11547 2.867 4.40476C2.867 4.69405 3.11649 4.92857 3.42424 4.92857H7.47036C7.77812 4.92857 8.0276 4.69405 8.0276 4.40476C8.0276 4.11547 7.77812 3.88095 7.47036 3.88095Z" fill="#2F78CA"/>
</svg>
