<svg width="13" height="13" viewBox="0 0 13 13" fill="none" xmlns="http://www.w3.org/2000/svg">
<g clip-path="url(#clip0)">
<path d="M1.26343 6.15704C1.50484 4.79411 2.26535 3.61048 3.33335 2.81775" stroke="#2F78CA"/>
<path d="M8.93876 11.8183C8.20825 12.1959 7.37901 12.4092 6.49996 12.4092C5.40669 12.4092 4.39047 12.0793 3.54541 11.5136" stroke="#2F78CA"/>
<path d="M9.66638 2.81775C10.6691 3.562 11.4007 4.65081 11.6862 5.90906" stroke="#2F78CA"/>
<path d="M3.54545 8.86367C3.54545 7.88462 2.75178 7.09094 1.77273 7.09094C0.793677 7.09094 0 7.88462 0 8.86367C0 9.84272 0.793677 10.6364 1.77273 10.6364C2.75178 10.6364 3.54545 9.84272 3.54545 8.86367Z" fill="#2F78CA"/>
<path d="M8.27275 1.77273C8.27275 0.793677 7.47907 0 6.50002 0C5.52097 0 4.72729 0.793677 4.72729 1.77273C4.72729 2.75178 5.52097 3.54545 6.50002 3.54545C7.47907 3.54545 8.27275 2.75178 8.27275 1.77273Z" fill="#2F78CA"/>
<path d="M13 9.45449C13 8.47544 12.2064 7.68176 11.2273 7.68176C10.2483 7.68176 9.45459 8.47544 9.45459 9.45449C9.45459 10.4335 10.2483 11.2272 11.2273 11.2272C12.2064 11.2272 13 10.4335 13 9.45449Z" fill="#2F78CA"/>
</g>
<defs>
<clipPath id="clip0">
<rect width="13" height="13" fill="white"/>
</clipPath>
</defs>
</svg>
