<svg width="13" height="13" viewBox="0 0 13 13" fill="none" xmlns="http://www.w3.org/2000/svg">
<path d="M2.02743 6.0003C2.27602 3.75018 4.18362 2 6.5 2C7.91363 2 9.17502 2.65183 10 3.67133V2.25716C9.04906 1.47182 7.82963 1 6.5 1C3.63084 1 1.27482 3.19696 1.02239 6.00039L0 6L1.5 9L3 6L2.02743 6.0003Z" fill="#2F78CA"/>
<path d="M10.9726 6.9997C10.724 9.24982 8.81638 11 6.5 11C5.08637 11 3.82498 10.3482 3 9.32867V10.7428C3.95094 11.5282 5.17037 12 6.5 12C9.36916 12 11.7252 9.80304 11.9776 6.99961L13 7L11.5 4L10 7L10.9726 6.9997Z" fill="#2F78CA"/>
<circle cx="6.5" cy="6.5" r="1" stroke="#2F78CA"/>
</svg>
