<?xml version="1.0" encoding="UTF-8"?>
<svg width="21px" height="16px" viewBox="0 0 21 16" version="1.1" xmlns="http://www.w3.org/2000/svg" xmlns:xlink="http://www.w3.org/1999/xlink">
    <title>tab-contacts-active</title>
    <g id="tab-contacts-active" stroke="none" stroke-width="1" fill="none" fill-rule="evenodd">
        <g fill-rule="nonzero" id="Combined-Shape" stroke="#FFFFFF">
            <path d="M6.87460289,10.2392979 C5.97521053,11.3440661 5.1981793,12.8825598 4.76029038,15.0074333 C4.86684544,15.1457664 4.97119917,15.2703235 5.07391226,15.3829601 L5.17,15.484 L5.11952973,15.4830243 C3.48470338,15.4405301 1.93253382,15.2841607 0.801917403,14.6944537 L0.566218306,14.5613388 C0.955885001,13.0418492 1.63933707,12.0150432 2.54430954,11.3512015 C3.71363687,10.4934426 5.22924215,10.2392979 6.87460289,10.2392979 Z M14.1438337,10.2392979 C15.7591076,10.2392979 17.2480341,10.5364758 18.4071216,11.3924496 C19.3262334,12.071204 20.0264657,13.1017015 20.4298161,14.585773 C19.0255855,15.4479256 16.8722118,15.4906845 14.8059338,15.4980178 L14.8059338,15.4980178 L13.5179068,15.4980214 C11.5311813,15.4905248 9.27821554,15.445192 7.83537271,14.5616365 C8.22502648,13.0419834 8.90850873,12.0150865 9.81354032,11.3512015 C10.9828677,10.4934426 12.4984729,10.2392979 14.1438337,10.2392979 Z M6.87975545,0.5 C7.73949689,0.5 8.44397897,0.987215359 8.94663104,1.71230961 C8.80385948,2.31446823 8.7102142,2.94486169 8.66869529,3.58995264 C8.6366704,4.08753234 8.58198393,4.57192234 8.52963863,5.03711091 C8.40484672,6.14612679 8.31118386,7.15045506 8.49194853,7.98852109 C8.05724773,8.06720585 7.52030338,8.1068214 6.86027166,8.1068214 C5.35925106,8.1068214 4.50418948,7.92497074 4.0673941,7.51848886 C3.53489434,7.02294446 3.72285567,6.23224359 3.82541431,5.38038363 C3.86323199,5.0662671 3.9024074,4.73915743 3.9255439,4.40317449 C4.00153236,3.29968754 4.35912224,2.26849172 4.94037304,1.53308463 C5.43420546,0.908280574 6.09395484,0.5 6.87975545,0.5 Z M14.1489862,0.5 C14.9343087,0.5 15.5922726,0.907992772 16.0832471,1.5325287 C16.6610812,2.26755293 17.0139171,3.29806898 17.0845289,4.40077674 C17.1060442,4.73677158 17.1436417,5.06389187 17.1799443,5.37801954 C17.2785009,6.23083255 17.4618458,7.0219356 16.9266856,7.5177285 C16.4877401,7.92438453 15.6314844,8.1068214 14.1295024,8.1068214 C12.6284818,8.1068214 11.7734202,7.92497074 11.3366249,7.51848886 C10.8041251,7.02294446 10.9920865,6.23224359 11.0946451,5.38038363 C11.1324628,5.0662671 11.1716382,4.73915743 11.1947747,4.40317447 C11.2707631,3.29968754 11.628353,2.26849173 12.2096038,1.53308465 C12.7034362,0.90828058 13.3631856,0.5 14.1489862,0.5 Z"></path>
        </g>
    </g>
</svg>