<?xml version="1.0" encoding="UTF-8"?>
<svg width="21px" height="18px" viewBox="0 0 21 18" version="1.1" xmlns="http://www.w3.org/2000/svg" xmlns:xlink="http://www.w3.org/1999/xlink">
    <title>tab-chat-active</title>
    <g id="tab-chat-active" stroke="none" stroke-width="1" fill="none" fill-rule="evenodd">
        <path d="M10.297729,3.55271368e-15 C10.6406895,3.55271368e-15 10.9793131,0.0179743366 11.3126491,0.0530029122 C13.9884078,0.334184716 16.8270945,0.987177225 19.8287091,2.01198044 C20.6612241,2.29621549 21.1464285,3.16144569 20.9547757,4.02001429 L20.9547757,4.02001429 L20.8673103,4.4117273 C19.9173204,8.66310271 19.3741253,11.0194931 19.237725,11.4808986 C18.1249951,15.2449648 14.5437419,18 10.297729,18 C5.16273505,18 1,13.9705627 1,9 C1,4.02943725 5.16273505,3.55271368e-15 10.297729,3.55271368e-15 Z M9.8448352,11.5714286 L5.38513488,11.5714286 C4.91174795,11.5714286 4.52799202,11.9551845 4.52799202,12.4285714 C4.52799202,12.9019584 4.91174795,13.2857143 5.38513488,13.2857143 L5.38513488,13.2857143 L9.8448352,13.2857143 C10.3182221,13.2857143 10.7019781,12.9019584 10.7019781,12.4285714 C10.7019781,11.9551845 10.3182221,11.5714286 9.8448352,11.5714286 L9.8448352,11.5714286 Z M16.0188212,8.14285714 L4.50313687,8.14285714 C4.02974994,8.14285714 3.64599402,8.52661307 3.64599402,9 C3.64599402,9.47338693 4.02974994,9.85714286 4.50313687,9.85714286 L4.50313687,9.85714286 L16.0188212,9.85714286 C16.4922082,9.85714286 16.8759641,9.47338693 16.8759641,9 C16.8759641,8.52661307 16.4922082,8.14285714 16.0188212,8.14285714 L16.0188212,8.14285714 Z M12.4908292,4.71428571 L6.26713288,4.71428571 C5.79374596,4.71428571 5.40999003,5.09804164 5.40999003,5.57142857 C5.40999003,6.0448155 5.79374596,6.42857143 6.26713288,6.42857143 L6.26713288,6.42857143 L12.4908292,6.42857143 C12.9642161,6.42857143 13.3479721,6.0448155 13.3479721,5.57142857 C13.3479721,5.09804164 12.9642161,4.71428571 12.4908292,4.71428571 L12.4908292,4.71428571 Z" id="Combined-Shape" fill="#FFFFFF"></path>
    </g>
</svg>