<?xml version="1.0" encoding="UTF-8"?>
<svg width="21px" height="16px" viewBox="0 0 21 16" version="1.1" xmlns="http://www.w3.org/2000/svg" xmlns:xlink="http://www.w3.org/1999/xlink">
    <title>tab-contacts-active</title>
    <g id="tab-contacts-active" stroke="none" stroke-width="1" fill="none" fill-rule="evenodd">
        <path d="M6.87460289,9.7392979 C7.32523889,9.7392979 7.76617369,9.76200114 8.19378773,9.81172283 C6.81688894,10.8690969 5.77879618,12.5423469 5.25,15.1083515 C5.7234631,15.4830856 6.27752338,15.7738779 6.88674391,15.9995315 L6.56316553,15.9987044 C4.2604468,15.9965045 1.56616992,15.9459066 -9.76996262e-15,14.7821562 C0.887138119,10.7305109 3.62930392,9.7392979 6.87460289,9.7392979 Z M14.1438337,9.7392979 C17.3669673,9.7392979 20.0938171,10.9007271 21,14.8025041 C19.5424591,15.8947783 17.1340491,15.9897586 14.8059338,15.9980178 L13.5160201,15.9980044 C11.286424,15.9896048 8.76047329,15.8930089 7.26923077,14.7821562 C8.15636889,10.7305109 10.8985347,9.7392979 14.1438337,9.7392979 Z M6.87975545,3.55271368e-15 C7.97512472,3.55271368e-15 8.87779005,0.642211874 9.48449394,1.62091063 C9.31894381,2.25817647 9.21212024,2.93132077 9.1676629,3.62206686 C9.04808231,5.48002385 8.62009542,7.15729115 9.12563704,8.34931583 C8.59078968,8.51631193 7.85734225,8.6068214 6.86027166,8.6068214 C2.29506796,8.6068214 3.26554783,6.70940568 3.4267252,4.36882477 C3.58790258,2.02824386 4.93313415,3.55271368e-15 6.87975545,3.55271368e-15 Z M14.1489862,3.55271368e-15 C16.0956075,3.55271368e-15 17.4336281,2.02824386 17.5835069,4.36882477 C17.7333856,6.70940568 18.6947061,8.6068214 14.1295024,8.6068214 C9.56429872,8.6068214 10.5347786,6.70940568 10.695956,4.36882477 C10.8571333,2.02824386 12.2023649,3.55271368e-15 14.1489862,3.55271368e-15 Z" id="Combined-Shape" fill="#FFFFFF"></path>
    </g>
</svg>