<?xml version="1.0" encoding="UTF-8"?>
<svg width="18px" height="18px" viewBox="0 0 18 18" version="1.1" xmlns="http://www.w3.org/2000/svg" xmlns:xlink="http://www.w3.org/1999/xlink">
    <title>tab-phone-active</title>
    <g id="tab-phone-active" stroke="none" stroke-width="1" fill="none" fill-rule="evenodd">
        <g fill-rule="nonzero" stroke="#FFFFFF">
            <path d="M9,0.5 C11.3472102,0.5 13.4722102,1.45139491 15.0104076,2.98959236 C16.5486051,4.52778981 17.5,6.65278981 17.5,9 C17.5,11.3472102 16.5486051,13.4722102 15.0104076,15.0104076 C13.4722102,16.5486051 11.3472102,17.5 9,17.5 C6.65278981,17.5 4.52778981,16.5486051 2.98959236,15.0104076 C1.45139491,13.4722102 0.5,11.3472102 0.5,9 C0.5,6.65278981 1.45139491,4.52778981 2.98959236,2.98959236 C4.52778981,1.45139491 6.65278981,0.5 9,0.5 Z" id="Combined-Shape"></path>
            <path d="M5.74480319,4.31602407 L6.40869968,6.61488953 C6.54438455,7.00486694 5.93553439,7.47056051 5.93553439,7.47056051 C6.0155663,8.79158078 6.64555207,9.75789101 7.44761008,10.5575332 C8.2484972,11.356008 9.21320704,11.9803109 10.0580861,12.1851301 C10.5294395,12.0527584 10.8004673,11.7790695 11.1195943,11.6415148 L11.1195943,11.6415148 L13.6839759,12.2551968 L13.4364205,13.7480308 C11.0053326,13.8032267 8.68551135,12.7153564 6.98507747,11.0149225 C5.28464358,9.31448865 4.19677327,6.99466742 4.25196913,4.56357947 L4.25196913,4.56357947 L5.74480319,4.31602407 Z" id="Combined-Shape-path" fill="#FFFFFF"></path>
        </g>
    </g>
</svg>