<?xml version="1.0" encoding="UTF-8"?>
<svg width="18px" height="18px" viewBox="0 0 18 18" version="1.1" xmlns="http://www.w3.org/2000/svg" xmlns:xlink="http://www.w3.org/1999/xlink">
    <title>tab-phone-active</title>
    <g id="tab-phone-active" stroke="none" stroke-width="1" fill="none" fill-rule="evenodd">
        <path d="M9,0 C13.9705627,0 18,4.02943725 18,9 C18,13.9705627 13.9705627,18 9,18 C4.02943725,18 0,13.9705627 0,9 C0,4.02943725 4.02943725,0 9,0 Z M6.1017722,3.75 L3.77203465,4.13633839 C3.37398904,9.56849025 8.43150975,14.626011 13.8636616,14.2279653 L14.25,11.8982278 L11.5339241,11.1138438 C10.9485629,10.9265282 10.1758861,11.699205 10.1758861,11.699205 C8.63053255,11.3245738 6.67542617,9.36946745 6.28908778,7.8241139 C6.28908778,7.8241139 7.07347178,7.0397299 6.8861562,6.46607593 L6.1017722,3.75 Z" id="Combined-Shape" fill="#FFFFFF"></path>
    </g>
</svg>