<?xml version="1.0" encoding="UTF-8"?>
<svg width="21px" height="17px" viewBox="0 0 21 17" version="1.1" xmlns="http://www.w3.org/2000/svg" xmlns:xlink="http://www.w3.org/1999/xlink">
    <title>tab-meeting-active</title>
    <g id="tab-meeting-active" stroke="none" stroke-width="1" fill="none" fill-rule="evenodd">
        <g fill-rule="nonzero">
            <path d="M8.75,0.5 C10.9373897,0.5 13.1240578,1.01953069 15.3110914,2.0535032 C15.8267031,2.29726443 16.2489295,2.67874836 16.5422533,3.14187409 C16.8355786,3.60500218 17,4.14977283 17,4.72010452 L17,4.72010452 L17,12.2798793 C17,12.8502102 16.8355809,13.3949802 16.5422588,13.8581092 C16.2489382,14.3212359 15.8267158,14.7027223 15.3111076,14.9464892 C13.1240718,15.980466 10.9373967,16.5 8.75,16.5 C6.56261026,16.5 4.37594218,15.9804693 2.18890856,14.9464968 C1.67329686,14.7027356 1.25107047,14.3212517 0.957746686,13.8581259 C0.664421398,13.3949978 0.5,12.8502272 0.5,12.2798955 L0.5,12.2798955 L0.5,4.72012069 C0.5,4.14978981 0.664419063,3.60501984 0.957741183,3.14189083 C1.25106182,2.67876416 1.67328424,2.29727773 2.18889243,2.05351084 C4.37592829,1.01953399 6.5626033,0.5 8.75,0.5 Z" id="Combined-Shape" stroke="#FFFFFF"></path>
            <path d="M20.6504775,3.52850572 C20.866903,3.65467417 21,3.88632722 21,4.13684362 L21,12.8753931 C21,13.2706479 20.6795826,13.5910653 20.2843278,13.5910653 C20.0441742,13.5910653 19.8200299,13.4706139 19.6875,13.2703402 L18.6958784,11.7718428 C18.4865944,11.4555814 18.375,11.0847276 18.375,10.7054901 L18.375,6.5557385 C18.375,6.2137949 18.465739,5.87797525 18.6379533,5.58256422 L19.6875,3.78220401 C19.8833621,3.44622826 20.3145018,3.33264367 20.6504775,3.52850572 Z" id="Combined-Shape-path" fill="#FFFFFF"></path>
            <path d="M8.75704927,9.85 C9.96633994,9.85 11.0827064,10.064156 11.951091,10.6930003 C12.623719,11.1800867 13.1362952,11.9171571 13.4374563,12.9717436 C12.1633365,13.9914487 10.6242054,13.9496135 9.0221205,13.9469356 C6.90460192,13.9568844 5.34064329,14.0036598 4.05785817,12.9558879 C4.34859706,11.8749302 4.84854353,11.1391345 5.51146339,10.6622898 C6.3878826,10.031873 7.52486487,9.85 8.75704927,9.85 Z" id="Combined-Shape-path" stroke="#FFFFFF" fill="#FFFFFF"></path>
            <path d="M8.76037894,3.05 C9.28630416,3.05 9.72627035,3.31309784 10.0548455,3.71316835 C10.4526792,4.19756747 10.6934046,4.87746623 10.7419812,5.60359595 C10.842944,6.52583169 10.9598792,7.19135726 10.624505,7.58524341 C10.3373577,7.92248864 9.73828486,8 8.74630731,8 C7.71437312,8 7.11772162,7.89625129 6.81579722,7.62730553 C6.46669824,7.31633799 6.62695634,6.80801938 6.69203512,6.29060476 C6.71970945,6.07057763 6.7483041,5.84144155 6.76523488,5.60609937 C6.81752764,4.87921636 7.06164916,4.19866309 7.46195932,3.71386133 C7.79258092,3.31345698 8.23390364,3.05 8.76037894,3.05 Z" id="Combined-Shape-path" stroke="#FFFFFF" fill="#FFFFFF"></path>
        </g>
    </g>
</svg>