<?xml version="1.0" encoding="UTF-8"?>
<svg width="20px" height="18px" viewBox="0 0 20 18" version="1.1" xmlns="http://www.w3.org/2000/svg" xmlns:xlink="http://www.w3.org/1999/xlink">
    <title>tab-chat-active</title>
    <g id="tab-chat-active" stroke="none" stroke-width="1" fill="none" fill-rule="evenodd">
        <g fill-rule="nonzero" stroke="#FFFFFF">
            <path d="M9.297729,0.5 C9.62303133,0.5 9.9442207,0.517039784 10.2603944,0.55026486 C12.9019172,0.827848989 15.7040273,1.47349835 18.6671567,2.48516204 C18.9442038,2.57975071 19.1671075,2.76493235 19.3117237,2.9978093 C19.4542644,3.22734389 19.5209451,3.50317644 19.4880916,3.78464932 C19.4595503,3.91321447 19.4313873,4.04001344 19.4036001,4.16505684 L19.2413705,4.89433528 C18.3474266,8.90849642 17.8828119,10.9177515 17.7582376,11.339153 C17.2264718,13.1379737 16.0968108,14.6918967 14.5922495,15.7890323 C13.1185104,16.8636921 11.2848101,17.5 9.297729,17.5 C6.86639518,17.5 4.66455618,16.5472338 3.07099633,15.0047024 C1.48342217,13.467965 0.5,11.3453982 0.5,9 C0.5,6.65460179 1.48342218,4.53203494 3.07099634,2.99529759 C4.6645562,1.45276622 6.86639518,0.5 9.297729,0.5 Z" id="Combined-Shape"></path>
            <path d="M8.8448352,12.0714286 C8.94345749,12.0714286 9.03274322,12.1114032 9.09737338,12.1760333 C9.16200352,12.2406635 9.2019781,12.3299491 9.2019781,12.4285714 C9.2019781,12.5271937 9.16200352,12.6164794 9.09737337,12.6811096 C9.03274321,12.7457397 8.94345748,12.7857143 8.8448352,12.7857143 L8.8448352,12.7857143 L4.41292067,12.7857143 C4.27455051,12.7690251 4.17999514,12.7359693 4.11698721,12.6644856 C4.06154656,12.601587 4.02799202,12.518987 4.02799202,12.4285714 C4.02799202,12.3299491 4.06796659,12.2406634 4.13259673,12.1760333 L4.13259673,12.1760333 Z" id="Combined-Shape-path" fill-opacity="0.6" fill="#FFFFFF"></path>
            <path d="M15.0188212,8.64285714 C15.1174435,8.64285714 15.2067292,8.68283171 15.2713594,8.74746186 C15.3359895,8.812092 15.3759641,8.90137772 15.3759641,9 C15.3759641,9.09862228 15.3359895,9.187908 15.2713594,9.25253814 C15.2067292,9.31716829 15.1174435,9.35714286 15.0188212,9.35714286 L15.0188212,9.35714286 L3.53092266,9.35714286 C3.39255251,9.3404537 3.29799714,9.3073979 3.23498921,9.23591412 C3.17954857,9.17301558 3.14599402,9.09041556 3.14599402,9 C3.14599402,8.90137772 3.1859686,8.812092 3.25059874,8.74746186 L3.25059874,8.74746186 Z" id="Combined-Shape-path" fill-opacity="0.6" fill="#FFFFFF"></path>
            <path d="M11.4908292,5.21428571 C11.5894515,5.21428571 11.6787372,5.2542603 11.7433674,5.31889045 C11.8079975,5.38352059 11.8479721,5.4728063 11.8479721,5.57142857 C11.8479721,5.67005084 11.8079975,5.75933655 11.7433674,5.82396669 C11.6787372,5.88859684 11.5894515,5.92857143 11.4908292,5.92857143 L11.4908292,5.92857143 L5.29491867,5.92857143 C5.15654852,5.91188227 5.06199315,5.87882647 4.99898522,5.80734269 C4.94354458,5.74444415 4.90999003,5.66184413 4.90999003,5.57142857 C4.90999003,5.47280629 4.94996461,5.38352058 5.01459475,5.31889043 L5.01459475,5.31889043 Z" id="Combined-Shape-path" fill-opacity="0.6" fill="#FFFFFF"></path>
        </g>
    </g>
</svg>