<?xml version="1.0" encoding="UTF-8"?>
<svg width="22px" height="17px" viewBox="0 0 22 17" version="1.1" xmlns="http://www.w3.org/2000/svg" xmlns:xlink="http://www.w3.org/1999/xlink">
    <title>tab-meeting-active</title>
    <g id="tab-meeting-active" stroke="none" stroke-width="1" fill="none" fill-rule="evenodd">
        <path d="M9.75,0 C12.0082646,0 14.2665292,0.533824334 16.5247938,1.601473 C17.7308288,2.17163961 18.5,3.3860841 18.5,4.72010452 L18.5,12.2798793 C18.5000087,13.6138962 17.7308404,14.8283378 16.5248152,15.3985169 C14.2665435,16.4661723 12.0082717,17 9.75,17 C7.4917354,17 5.23347081,16.4661757 2.97520621,15.398527 C1.76917117,14.8283604 1,13.6139159 1,12.2798955 L1,4.72012069 C0.999991301,3.3861038 1.76915958,2.17166223 2.97518482,1.60148312 C5.23345655,0.533827705 7.49172827,0 9.75,0 Z M9.75704927,9.35 C7.27535006,9.35 5.17839974,10.0932727 4.5,13.1314467 C5.91077464,14.456152 7.61899963,14.4582318 9.28309068,14.4485769 L9.75704927,14.4466314 L9.75704927,14.4466314 C11.6862845,14.4466314 13.5193615,14.5163444 15,13.1467048 C14.3070366,10.2209113 12.2217986,9.35 9.75704927,9.35 Z M21.6504775,3.52850572 C21.866903,3.65467417 22,3.88632722 22,4.13684362 L22,12.8753931 C22,13.2706479 21.6795826,13.5910653 21.2843278,13.5910653 C21.0441742,13.5910653 20.8200299,13.4706139 20.6875,13.2703402 L19.6958784,11.7718428 C19.4865944,11.4555814 19.375,11.0847276 19.375,10.7054901 L19.375,6.5557385 C19.375,6.2137949 19.465739,5.87797525 19.6379533,5.58256422 L20.6875,3.78220401 C20.8833621,3.44622826 21.3145018,3.33264367 21.6504775,3.52850572 Z M9.76037894,2.55 C8.35448577,2.55 7.38292964,3.95214958 7.26652376,5.57022154 C7.15011787,7.1882935 6.44921575,8.5 9.74630731,8.5 C12.4938836,8.5 12.4696692,7.58909271 12.322634,6.34907271 L12.2967191,6.13338245 C12.2923641,6.09693293 12.2880325,6.06024189 12.283786,6.02332289 L12.2598222,5.799182 C12.2525041,5.72362892 12.2460206,5.64727259 12.2408661,5.57022154 C12.1326203,3.95214958 11.1662721,2.55 9.76037894,2.55 Z" id="Combined-Shape" fill="#FFFFFF"></path>
    </g>
</svg>