<?xml version="1.0" encoding="UTF-8"?>
<svg width="28px" height="28px" viewBox="0 0 28 28" version="1.1" xmlns="http://www.w3.org/2000/svg" xmlns:xlink="http://www.w3.org/1999/xlink">
    <title>button-muted</title>
    <g id="DUIR-1670---Mute" stroke="none" stroke-width="1" fill="none" fill-rule="evenodd">
        <g id="1670---Hold-button" transform="translate(-657.000000, -139.000000)">
            <g id="CALL-HEADER-Copy" transform="translate(420.000000, 116.000000)">
                <g id="Group" transform="translate(237.000000, 23.000000)">
                    <path d="M14,0 C21.7319865,0 28,6.2680135 28,14 C28,21.7319865 21.7319865,28 14,28 C6.2680135,28 0,21.7319865 0,14 C0,6.2680135 6.2680135,0 14,0 Z M15.5,22 L12.5,22 L12.5,25 L15.5,25 L15.5,22 Z M21.7954058,17.0003235 L19.6272737,17.0002968 C18.623206,19.0977766 16.4809247,20.5464459 14.0002885,20.5464459 C13.3868294,20.5464459 12.7940631,20.4578498 12.2340865,20.2927548 L11.0489997,21.4784754 C11.9691438,21.8158539 12.9632114,22 14.0002885,22 C17.4597247,22 20.4405813,19.950957 21.7954058,17.0003235 L21.7954058,17.0003235 Z M18,14.526 L13.5521486,18.9752091 C13.6991734,18.9915891 13.8486045,19 14,19 C16.209139,19 18,17.209139 18,15 L18,15 L18,14.526 Z M7.041,17 L6.20517129,17.0003235 C6.29209729,17.1896372 6.38571693,17.3752394 6.48572715,17.5568271 L7.041,17 Z M14,4 C11.790861,4 10,5.790861 10,8 L10,8 L10,14.041 L17.659765,6.38316919 C17.0641548,5.03695988 15.7475572,4.08097922 14.1996403,4.00489531 Z" id="Combined-Shape" fill="#FFFFFF"></path>
                    <rect id="Rectangle" fill="#AD1A1A" transform="translate(14.000000, 14.000000) rotate(45.000000) translate(-14.000000, -14.000000) " x="13" y="3" width="2" height="22" rx="1"></rect>
                </g>
            </g>
        </g>
    </g>
</svg>