<?xml version="1.0" encoding="UTF-8"?>
<svg width="28px" height="28px" viewBox="0 0 28 28" version="1.1" xmlns="http://www.w3.org/2000/svg" xmlns:xlink="http://www.w3.org/1999/xlink">
    <title>button-meeting-add</title>
    <g id="button-meeting-add" stroke="none" stroke-width="1" fill="none" fill-rule="evenodd">
        <path d="M11.8275804,5 C14.3317941,5 16.8360079,5.58159287 19.3402216,6.74477861 C20.7520364,7.40055634 21.6551608,8.81584532 21.6551608,10.3725294 L21.6551608,18.627477 C21.6551608,20.1841601 20.7520317,21.5994482 19.3402169,22.2552236 C16.8360047,23.4184079 14.3317926,24 11.8275804,24 C9.32336667,24 6.81915295,23.4184071 4.31493922,22.2552214 C2.90312443,21.5994437 2,20.1841547 2,18.6274706 L2,10.372523 C2,8.81583988 2.90312914,7.40055184 4.31494395,6.74477641 C6.8191561,5.58159214 9.32336825,5 11.8275804,5 Z M12,9 C11.4477152,9 11,9.44771525 11,10 L11,10 L11,13.5 L7.5,13.5 C6.98716416,13.5 6.56449284,13.8860402 6.50672773,14.3833789 L6.5,14.5 C6.5,15.0522847 6.94771525,15.5 7.5,15.5 L7.5,15.5 L11,15.5 L11,19 C11,19.5128358 11.3860402,19.9355072 11.8833789,19.9932723 L12,20 C12.5522847,20 13,19.5522847 13,19 L13,19 L13,15.5 L16.5,15.5 C17.0128358,15.5 17.4355072,15.1139598 17.4932723,14.6166211 L17.5,14.5 C17.5,13.9477152 17.0522847,13.5 16.5,13.5 L16.5,13.5 L13,13.5 L13,10 C13,9.48716416 12.6139598,9.06449284 12.1166211,9.00672773 L12,9 Z M27.596446,9.65699041 C27.856063,9.94160909 27.9999842,10.3129507 27.9999842,10.6981893 L27.9999842,18.2587946 C27.9999842,19.1370111 27.2880491,19.8489462 26.4098326,19.8489462 C26.04757,19.8489462 25.6961663,19.7252518 25.4137788,19.4983344 L23.6646914,18.0928248 C23.1354376,17.6675337 22.8275734,17.0251985 22.8275734,16.3462419 L22.8275734,12.9046837 C22.8275734,12.2747096 23.0927783,11.6738393 23.5582103,11.249292 L25.4137788,9.55672111 C26.0441943,8.98168282 27.0214077,9.02657492 27.596446,9.65699041 Z" id="Shape" fill="#2F78CA" fill-rule="nonzero"></path>
    </g>
</svg>