<?xml version="1.0" encoding="UTF-8"?>
<svg width="28px" height="28px" viewBox="0 0 28 28" version="1.1" xmlns="http://www.w3.org/2000/svg" xmlns:xlink="http://www.w3.org/1999/xlink">
    <title>btn_meeting</title>
    <g id="btn_meeting" stroke="none" stroke-width="1" fill="none" fill-rule="evenodd">
        <path d="M11.8275804,5 C14.3317941,5 16.8360079,5.58159287 19.3402216,6.74477861 C20.7520364,7.40055634 21.6551608,8.81584532 21.6551608,10.3725294 L21.6551608,18.627477 C21.6551557,20.1841601 20.7520317,21.5994482 19.3402169,22.2552236 C16.8360047,23.4184079 14.3317926,24 11.8275804,24 C9.32336667,24 6.81915295,23.4184071 4.31493922,22.2552214 C2.90312443,21.5994437 2,20.1841547 2,18.6274706 L2,10.372523 C2.00000506,8.81583988 2.90312914,7.40055184 4.31494395,6.74477641 C6.8191561,5.58159214 9.32336825,5 11.8275804,5 Z M11.8692912,15.45 C9.32646659,15.45 7.17786739,16.2807166 6.48275834,19.6763228 C7.74931156,20.9735692 9.24984481,21.1359652 10.7489287,21.1490338 L11.1983749,21.14946 C11.3480189,21.1487659 11.497413,21.1475639 11.6463216,21.1468398 L12.6054424,21.1465932 C14.3099586,21.1405779 15.9139094,21.0328029 17.2413784,19.693376 C16.531347,16.4233715 14.3947485,15.45 11.8692912,15.45 Z M27.596446,9.65699041 C27.856063,9.94160909 27.9999842,10.3129507 27.9999842,10.6981893 L27.9999842,18.2587946 C27.9999842,19.1370111 27.2880491,19.8489462 26.4098326,19.8489462 C26.04757,19.8489462 25.6961663,19.7252518 25.4137788,19.4983344 L23.6646914,18.0928248 C23.1354376,17.6675337 22.8275734,17.0251985 22.8275734,16.3462419 L22.8275734,12.9046837 C22.8275734,12.2747096 23.0927783,11.6738393 23.5582103,11.249292 L25.4137788,9.55672111 C26.0441943,8.98168282 27.0214077,9.02657492 27.596446,9.65699041 Z M11.8727029,7.85 C10.4321819,7.85 9.43669591,9.41710835 9.3174229,11.2255417 L9.30841773,11.3483002 L9.30841773,11.3483002 L9.28616206,11.5903171 C9.11926169,13.2270724 8.71032287,14.5 11.8582847,14.5 C15.2365852,14.5 14.5251975,13.0339751 14.4142856,11.2255417 C14.3033737,9.41710835 13.3132239,7.85 11.8727029,7.85 Z" id="Combined-Shape" fill="#2F78CA"></path>
    </g>
</svg>