<?xml version="1.0" encoding="UTF-8"?>
<svg width="28px" height="28px" viewBox="0 0 28 28" version="1.1" xmlns="http://www.w3.org/2000/svg" xmlns:xlink="http://www.w3.org/1999/xlink">
    <title>incall_btn_hold</title>
    <g id="incall_btn_hold" stroke="none" stroke-width="1" fill="none" fill-rule="evenodd">
        <path d="M8,6 C9.1045695,6 10,6.8954305 10,8 L10,20 C10,21.1045695 9.1045695,22 8,22 C6.8954305,22 6,21.1045695 6,20 L6,8 C6,6.8954305 6.8954305,6 8,6 Z M20,6 C21.1045695,6 22,6.8954305 22,8 L22,20 C22,21.1045695 21.1045695,22 20,22 C18.8954305,22 18,21.1045695 18,20 L18,8 C18,6.8954305 18.8954305,6 20,6 Z" id="Combined-Shape" fill="#FFFFFF"></path>
    </g>
</svg>