<svg width="26" height="26" viewBox="0 0 26 26" fill="none" xmlns="http://www.w3.org/2000/svg">
<path fill-rule="evenodd" clip-rule="evenodd" d="M4 5C2.89543 5 2 5.89543 2 7V18C2 19.1046 2.89543 20 4 20H20C21.1046 20 22 19.1046 22 18V10.1862C22 9.74146 22.1482 9.3094 22.4213 8.95833L25.5 5H4ZM5.02053 14.7303V13.6514C5.21896 13.8155 5.43451 13.9391 5.66716 14.0223C5.8998 14.1032 6.13473 14.1436 6.37195 14.1436C6.51108 14.1436 6.63196 14.1313 6.7346 14.1065C6.83952 14.0818 6.9262 14.0481 6.99462 14.0054C7.06533 13.9604 7.11779 13.9087 7.152 13.8503C7.18622 13.7896 7.20332 13.7244 7.20332 13.6548C7.20332 13.5604 7.17595 13.4761 7.12121 13.4019C7.06647 13.3277 6.9912 13.2592 6.89541 13.1962C6.80189 13.1333 6.69013 13.0726 6.56012 13.0142C6.43011 12.9557 6.28983 12.8962 6.1393 12.8355C5.75611 12.6781 5.46986 12.486 5.28055 12.2589C5.09352 12.0319 5 11.7577 5 11.4363C5 11.1845 5.05132 10.9688 5.15396 10.7889C5.2566 10.6069 5.39573 10.4574 5.57136 10.3405C5.74927 10.2236 5.95455 10.1382 6.18719 10.0843C6.41984 10.0281 6.66618 10 6.9262 10C7.18165 10 7.40746 10.0157 7.60362 10.0472C7.80205 10.0764 7.98452 10.1225 8.15103 10.1854V11.1935C8.06891 11.1373 7.97882 11.0879 7.88074 11.0452C7.78495 11.0025 7.68573 10.9676 7.58309 10.9407C7.48045 10.9114 7.37781 10.8901 7.27517 10.8766C7.17481 10.8631 7.07902 10.8564 6.98778 10.8564C6.86233 10.8564 6.74829 10.8687 6.64565 10.8935C6.54301 10.9159 6.45634 10.9485 6.38563 10.9912C6.31492 11.0339 6.26018 11.0856 6.22141 11.1463C6.18263 11.2048 6.16325 11.2711 6.16325 11.3452C6.16325 11.4262 6.18491 11.4992 6.22825 11.5644C6.27159 11.6273 6.33317 11.688 6.413 11.7465C6.49283 11.8027 6.58977 11.8588 6.70381 11.915C6.81786 11.969 6.94673 12.0252 7.09042 12.0836C7.28658 12.1645 7.4622 12.2511 7.6173 12.3432C7.77468 12.4331 7.90925 12.5354 8.02102 12.65C8.13278 12.7647 8.21831 12.8962 8.27761 13.0445C8.33692 13.1906 8.36657 13.3614 8.36657 13.557C8.36657 13.8267 8.31411 14.0537 8.20919 14.238C8.10655 14.4201 7.96628 14.5684 7.78837 14.6831C7.61046 14.7955 7.4029 14.8764 7.16569 14.9258C6.93076 14.9753 6.68214 15 6.41984 15C6.1507 15 5.8941 14.9775 5.65005 14.9326C5.40828 14.8876 5.19844 14.8202 5.02053 14.7303ZM14.7644 14.9157H13.673V12.0229C13.673 11.7105 13.6867 11.3655 13.7141 10.9879H13.6867C13.6297 11.2846 13.5784 11.4981 13.5327 11.6285L12.3832 14.9157H11.48L10.3099 11.6622C10.2779 11.5745 10.2266 11.3497 10.1559 10.9879H10.1251C10.1548 11.4644 10.1696 11.8824 10.1696 12.2421V14.9157H9.174V10.0809H10.7923L11.7947 12.9467C11.8746 13.176 11.9327 13.4064 11.9692 13.6379H11.9897C12.0513 13.3704 12.1163 13.1378 12.1848 12.94L13.1872 10.0809H14.7644V14.9157ZM15.654 13.6514V14.7303C15.8319 14.8202 16.0417 14.8876 16.2835 14.9326C16.5275 14.9775 16.7841 15 17.0533 15C17.3156 15 17.5642 14.9753 17.7991 14.9258C18.0363 14.8764 18.2439 14.7955 18.4218 14.6831C18.5997 14.5684 18.74 14.4201 18.8426 14.238C18.9475 14.0537 19 13.8267 19 13.557C19 13.3614 18.9703 13.1906 18.911 13.0445C18.8517 12.8962 18.7662 12.7647 18.6544 12.65C18.5427 12.5354 18.4081 12.4331 18.2507 12.3432C18.0956 12.2511 17.92 12.1645 17.7239 12.0836C17.5802 12.0252 17.4513 11.969 17.3372 11.915C17.2232 11.8588 17.1263 11.8027 17.0464 11.7465C16.9666 11.688 16.905 11.6273 16.8617 11.5644C16.8183 11.4992 16.7967 11.4262 16.7967 11.3452C16.7967 11.2711 16.8161 11.2048 16.8548 11.1463C16.8936 11.0856 16.9484 11.0339 17.0191 10.9912C17.0898 10.9485 17.1764 10.9159 17.2791 10.8935C17.3817 10.8687 17.4958 10.8564 17.6212 10.8564C17.7124 10.8564 17.8082 10.8631 17.9086 10.8766C18.0112 10.8901 18.1139 10.9114 18.2165 10.9407C18.3192 10.9676 18.4184 11.0025 18.5142 11.0452C18.6123 11.0879 18.7023 11.1373 18.7845 11.1935V10.1854C18.618 10.1225 18.4355 10.0764 18.237 10.0472C18.0409 10.0157 17.8151 10 17.5596 10C17.2996 10 17.0533 10.0281 16.8206 10.0843C16.588 10.1382 16.3827 10.2236 16.2048 10.3405C16.0292 10.4574 15.89 10.6069 15.7874 10.7889C15.6848 10.9688 15.6334 11.1845 15.6334 11.4363C15.6334 11.7577 15.7269 12.0319 15.914 12.2589C16.1033 12.486 16.3895 12.6781 16.7727 12.8355C16.9233 12.8962 17.0635 12.9557 17.1935 13.0142C17.3236 13.0726 17.4353 13.1333 17.5288 13.1962C17.6246 13.2592 17.6999 13.3277 17.7546 13.4019C17.8094 13.4761 17.8368 13.5604 17.8368 13.6548C17.8368 13.7244 17.8196 13.7896 17.7854 13.8503C17.7512 13.9087 17.6988 13.9604 17.6281 14.0054C17.5596 14.0481 17.473 14.0818 17.368 14.1065C17.2654 14.1313 17.1445 14.1436 17.0054 14.1436C16.7682 14.1436 16.5332 14.1032 16.3006 14.0223C16.0679 13.9391 15.8524 13.8155 15.654 13.6514Z" fill="#2F78CA"/>
<path d="M25 22H21L23 25.5L25 22Z" fill="black" fill-opacity="0.54"/>
</svg>
