<svg width="26" height="26" viewBox="0 0 26 26" fill="none" xmlns="http://www.w3.org/2000/svg">
<path d="M25 22H21L23 25.5L25 22Z" fill="black" fill-opacity="0.54"/>
<path fill-rule="evenodd" clip-rule="evenodd" d="M4 5C2.89543 5 2 5.89543 2 7V18C2 19.1046 2.89543 20 4 20H20C21.1046 20 22 19.1046 22 18V10.1862C22 9.74146 22.1482 9.3094 22.4213 8.95833L25.5 5H4ZM5.75 9C5.33579 9 5 9.33579 5 9.75C5 10.1642 5.33579 10.5 5.75 10.5H16.25C16.6642 10.5 17 10.1642 17 9.75C17 9.33579 16.6642 9 16.25 9H5.75ZM5 12.75C5 12.3358 5.33579 12 5.75 12H18.25C18.6642 12 19 12.3358 19 12.75C19 13.1642 18.6642 13.5 18.25 13.5H5.75C5.33579 13.5 5 13.1642 5 12.75ZM5.75 15C5.33579 15 5 15.3358 5 15.75C5 16.1642 5.33579 16.5 5.75 16.5H11.25C11.6642 16.5 12 16.1642 12 15.75C12 15.3358 11.6642 15 11.25 15H5.75Z" fill="#2F78CA"/>
</svg>
