<?xml version="1.0" encoding="UTF-8"?>
<svg width="16px" height="18px" viewBox="0 0 16 18" version="1.1" xmlns="http://www.w3.org/2000/svg" xmlns:xlink="http://www.w3.org/1999/xlink">
    <title>input-emoji</title>
    <g id="input-emoji" stroke="none" stroke-width="1" fill="none" fill-rule="evenodd">
        <g id="Group-2-Copy" transform="translate(0.000000, 1.000000)">
            <circle id="Oval" stroke-opacity="0.540947334" stroke="#000000" cx="8" cy="8" r="7.5"></circle>
            <path d="M13,8 C13,10.7614237 10.7614237,13 8,13 C5.23857625,13 3,10.7614237 3,8 C5,9.5 5.23857625,9 8,9 C10.7614237,9 11,9.5 13,8 Z M10.5,10 L5.5,10 C5.22385763,10 5,10.2238576 5,10.5 C5,10.7761424 5.22385763,11 5.5,11 L5.5,11 L10.5,11 C10.7761424,11 11,10.7761424 11,10.5 C11,10.2238576 10.7761424,10 10.5,10 L10.5,10 Z" id="Combined-Shape" fill-opacity="0.536003059" fill="#000000"></path>
            <circle id="Oval" fill-opacity="0.536003059" fill="#000000" cx="5.5" cy="6.5" r="1"></circle>
            <circle id="Oval" fill-opacity="0.536003059" fill="#000000" cx="10.5" cy="6.5" r="1"></circle>
        </g>
    </g>
</svg>