<?xml version="1.0" encoding="UTF-8"?>
<svg width="17px" height="18px" viewBox="0 0 17 18" version="1.1" xmlns="http://www.w3.org/2000/svg" xmlns:xlink="http://www.w3.org/1999/xlink">
    <title>input-attach</title>
    <g id="input-attach" stroke="none" stroke-width="1" fill="none" fill-rule="evenodd" stroke-opacity="0.540947334">
        <g id="Group-Copy" transform="translate(8.500000, 8.500000) rotate(-45.000000) translate(-8.500000, -8.500000) translate(-1.000000, 4.000000)" stroke="#000000" stroke-width="1.19999993">
            <path d="M11.8534269,10.9465718 C11.8534269,6.09296936 11.8534269,2.89296955 11.8534269,1.34657234 C11.8534269,-0.973023468 9.97302293,-2.85342741 7.65342712,-2.85342741 C5.33383131,-2.85342741 3.45342737,-0.973023468 3.45342737,1.34657234 C3.45342737,2.89296955 3.48921363,6.49525439 3.56078616,12.1534269" id="Oval" transform="translate(7.653427, 4.650000) rotate(-90.000000) translate(-7.653427, -4.650000) "></path>
            <path d="M15.1568542,8.74264069 C16.8137084,8.74264069 18.1499991,7.5068538 18.1499991,5.84999983 C18.1499991,4.1931455 16.8068532,2.84999983 15.1499991,2.84999983" id="Oval-Copy"></path>
            <path d="M11.0999993,10.4999994 C11.0999993,4.56274143 11.0999993,1.26274162 11.0999993,0.599999964 C11.0999993,-0.394112526 10.2941119,-1.19999993 9.29999945,-1.19999993 C8.30588696,-1.19999993 7.49999955,-0.394112526 7.49999955,0.599999964 C7.49999955,1.26274162 7.49999955,3.96274146 7.49999955,8.69999948" id="Oval-Copy-2" transform="translate(9.299999, 4.650000) rotate(-90.000000) translate(-9.299999, -4.650000) "></path>
        </g>
    </g>
</svg>