<?xml version="1.0" encoding="UTF-8"?>
<svg width="13px" height="13px" viewBox="0 0 13 13" version="1.1" xmlns="http://www.w3.org/2000/svg" xmlns:xlink="http://www.w3.org/1999/xlink">
    <title>menu-button-notify</title>
    <g id="DUIR-91---Notify-when-available" stroke="none" stroke-width="1" fill="none" fill-rule="evenodd">
        <g id="DUIR-168---Menu-Toggle-(Future)" transform="translate(-373.000000, -359.000000)" stroke="#2F78CA">
            <g id="Group-2" transform="translate(371.000000, 239.000000)">
                <g id="Group-Copy" transform="translate(2.000000, 120.000000)">
                    <path d="M7.43351383,11.5317745 C7.37592753,11.7528893 7.28268024,11.9515201 7.16066017,12.1142136 C6.99158249,12.3396505 6.76427543,12.5 6.5,12.5 C6.25261688,12.5 6.03701721,12.3586495 5.87178671,12.1557382 C5.75332696,12.0102637 5.65948055,11.8320511 5.59570138,11.6324275 L5.59570138,11.6324275 Z M6.15216801,0.651044473 C6.63807119,0.5 6.76307119,0.555964406 6.85355339,0.646446609 C6.94403559,0.736928813 7,0.861928813 7,1 L7,1 L7,1.39081768 L7.37924975,1.48520035 C7.88630891,1.61139053 8.23013083,1.8646873 8.48759186,2.44697539 C8.79803196,3.14908384 8.99429086,4.24310796 9.17326638,5.96090493 C9.2171517,6.38211377 9.69469405,6.86054524 10.3258617,7.33673155 C10.7373325,7.64716701 11.3134316,7.95003918 11.3134316,8.36363636 C11.3134316,8.70965007 11.3783706,9.05605345 11.4363192,9.35175085 L11.428,9.308 L1.53720213,9.49337503 C1.53942341,9.46949639 1.54369215,9.44608647 1.54858103,9.42264815 L1.56368076,9.35175085 C1.62162937,9.05605345 1.68656841,8.70965007 1.68656841,8.36363636 C1.68656841,7.95003918 2.26266746,7.64716701 2.67413835,7.33673155 C3.30530595,6.86054524 3.7828483,6.38211377 3.82673362,5.96090493 C4.00591209,4.24116013 4.20190992,3.14696009 4.51312654,2.455033 C4.76384804,1.89760455 5.0976885,1.66496122 5.59166339,1.57349771 L5.59166339,1.57349771 L6.00104598,1.49769715 L6.00063132,1.08135635 C6.00045954,0.908876713 6.05374916,0.757586629 6.15216801,0.651044473 Z" id="Combined-Shape"></path>
                </g>
            </g>
        </g>
    </g>
</svg>