<?xml version="1.0" encoding="UTF-8"?>
<svg width="13px" height="13px" viewBox="0 0 13 13" version="1.1" xmlns="http://www.w3.org/2000/svg" xmlns:xlink="http://www.w3.org/1999/xlink">
    <title>menu-button-notify-on</title>
    <g id="DUIR-91---Notify-when-available" stroke="none" stroke-width="1" fill="none" fill-rule="evenodd">
        <g id="DUIR-168---Menu-Toggle-(Future)" transform="translate(-389.000000, -359.000000)" fill="#2F78CA">
            <g id="Group-2" transform="translate(371.000000, 239.000000)">
                <g id="Group" transform="translate(18.000000, 120.000000)">
                    <path d="M8,11 C8,12.1045695 7.32842712,13 6.5,13 C5.67157288,13 5,12.1045695 5,11 L5,11 Z M6.5,0 C7.05228475,-1.01453063e-16 7.5,0.44771525 7.5,1 L7.50035338,1.08203687 C8.79339422,1.32188286 9.29029173,2.25915893 9.67057444,5.90909091 C9.74694213,6.64206362 11.8134316,7.39040624 11.8134316,8.36363636 C11.8134316,9.18181818 12.2332105,10 11.8134316,10 L11.8134316,10 L1.18656841,10 L1.18656841,10 C0.766789482,10 1.18656841,9.18181818 1.18656841,8.36363636 C1.18656841,7.39040624 3.25305787,6.64206362 3.32942556,5.90909091 C3.70980481,2.25823232 4.20685809,1.32140714 5.50063157,1.08185433 L5.5,1 C5.5,0.44771525 5.94771525,1.01453063e-16 6.5,0 Z" id="Combined-Shape"></path>
                </g>
            </g>
        </g>
    </g>
</svg>