<?xml version="1.0" encoding="UTF-8"?>
<svg width="13px" height="13px" viewBox="0 0 13 13" version="1.1" xmlns="http://www.w3.org/2000/svg" xmlns:xlink="http://www.w3.org/1999/xlink">
    <title>menu_btn_keypad</title>
    <g id="menu_btn_keypad" stroke="none" stroke-width="1" fill="none" fill-rule="evenodd">
        <path d="M6.5,9 C7.32842712,9 8,9.67157288 8,10.5 C8,11.3284271 7.32842712,12 6.5,12 C5.67157288,12 5,11.3284271 5,10.5 C5,9.67157288 5.67157288,9 6.5,9 Z M10.5,9 C11.3284271,9 12,9.67157288 12,10.5 C12,11.3284271 11.3284271,12 10.5,12 C9.67157288,12 9,11.3284271 9,10.5 C9,9.67157288 9.67157288,9 10.5,9 Z M2.5,9 C3.32842712,9 4,9.67157288 4,10.5 C4,11.3284271 3.32842712,12 2.5,12 C1.67157288,12 1,11.3284271 1,10.5 C1,9.67157288 1.67157288,9 2.5,9 Z M6.5,5 C7.32842712,5 8,5.67157288 8,6.5 C8,7.32842712 7.32842712,8 6.5,8 C5.67157288,8 5,7.32842712 5,6.5 C5,5.67157288 5.67157288,5 6.5,5 Z M10.5,5 C11.3284271,5 12,5.67157288 12,6.5 C12,7.32842712 11.3284271,8 10.5,8 C9.67157288,8 9,7.32842712 9,6.5 C9,5.67157288 9.67157288,5 10.5,5 Z M2.5,5 C3.32842712,5 4,5.67157288 4,6.5 C4,7.32842712 3.32842712,8 2.5,8 C1.67157288,8 1,7.32842712 1,6.5 C1,5.67157288 1.67157288,5 2.5,5 Z M6.5,1 C7.32842712,1 8,1.67157288 8,2.5 C8,3.32842712 7.32842712,4 6.5,4 C5.67157288,4 5,3.32842712 5,2.5 C5,1.67157288 5.67157288,1 6.5,1 Z M10.5,1 C11.3284271,1 12,1.67157288 12,2.5 C12,3.32842712 11.3284271,4 10.5,4 C9.67157288,4 9,3.32842712 9,2.5 C9,1.67157288 9.67157288,1 10.5,1 Z M2.5,1 C3.32842712,1 4,1.67157288 4,2.5 C4,3.32842712 3.32842712,4 2.5,4 C1.67157288,4 1,3.32842712 1,2.5 C1,1.67157288 1.67157288,1 2.5,1 Z" id="Combined-Shape" fill="#2F78CA"></path>
    </g>
</svg>