<?xml version="1.0" encoding="UTF-8"?>
<svg width="13px" height="13px" viewBox="0 0 13 13" version="1.1" xmlns="http://www.w3.org/2000/svg" xmlns:xlink="http://www.w3.org/1999/xlink">
    <title>menu_btn_video</title>
    <g id="menu_btn_video" stroke="none" stroke-width="1" fill="none" fill-rule="evenodd">
        <path d="M4.73076982,2 C5.72137724,2 6.71198477,2.060133 7.7025924,2.180399 C8.70655921,2.30229706 9.46153964,3.15448052 9.46153964,4.16582047 L9.46153964,7.83418588 C9.46153455,8.84552873 8.70655171,9.69771451 7.70258075,9.81960242 C6.711977,9.93986747 5.72137336,10 4.73076982,10 C3.7401624,10 2.74955487,9.939867 1.75894724,9.819601 C0.754980429,9.69770294 1.23853423e-16,8.84551948 0,7.83417953 L0,4.16581412 C5.09160351e-06,3.15447127 0.754987932,2.30228549 1.75895889,2.18039758 C2.74956264,2.06013253 3.74016628,2 4.73076982,2 Z M12.8497591,3.10475492 C12.9466895,3.21735506 13,3.36099748 13,3.50957172 L13,8.47517874 C13,8.81787141 12.7221927,9.0956787 12.3795,9.0956787 C12.2441112,9.0956787 12.1124377,9.05139749 12.0045609,8.96958837 L10.5587427,7.87314175 C10.2794467,7.66133564 10.1153846,7.33101467 10.1153846,6.98048925 L10.1153846,5.15369371 C10.1153846,4.82748001 10.2575708,4.51746809 10.5047988,4.30464489 L11.9746832,3.03931267 C12.2344001,2.81573853 12.6261849,2.84503802 12.8497591,3.10475492 Z" id="Combined-Shape" fill="#2F78CA"></path>
    </g>
</svg>