<?xml version="1.0" encoding="UTF-8"?>
<svg width="13px" height="13px" viewBox="0 0 13 13" version="1.1" xmlns="http://www.w3.org/2000/svg" xmlns:xlink="http://www.w3.org/1999/xlink">
    <title>menu_btn_park</title>
    <g id="menu_btn_park" stroke="none" stroke-width="1" fill="none" fill-rule="evenodd">
        <circle id="Oval-Copy-2" stroke="#2F78CA" stroke-width="1.5" cx="6.5" cy="6.5" r="5.75"></circle>
        <path d="M5.908,10 L5.908,7.7095 L6.817,7.7095 C7.24,7.7095 7.609,7.657 7.924,7.552 C8.239,7.447 8.5015,7.3 8.7115,7.111 C8.9215,6.922 9.079,6.69625 9.184,6.43375 C9.289,6.17125 9.3415,5.8825 9.3415,5.5675 C9.3415,5.2645 9.292,4.9855 9.193,4.7305 C9.094,4.4755 8.941,4.2565 8.734,4.0735 C8.527,3.8905 8.2645,3.748 7.9465,3.646 C7.6285,3.544 7.252,3.493 6.817,3.493 L6.817,3.493 L4.6975,3.493 L4.6975,10 L5.908,10 Z M6.817,6.7645 L5.908,6.7645 L5.908,4.429 L6.817,4.429 C7.039,4.429 7.2325,4.45525 7.3975,4.50775 C7.5625,4.56025 7.699,4.636 7.807,4.735 C7.915,4.834 7.996,4.954 8.05,5.095 C8.104,5.236 8.131,5.3935 8.131,5.5675 C8.131,5.7505 8.104,5.91625 8.05,6.06475 C7.996,6.21325 7.915,6.33925 7.807,6.44275 C7.699,6.54625 7.5625,6.62575 7.3975,6.68125 C7.2325,6.73675 7.039,6.7645 6.817,6.7645 L6.817,6.7645 Z" id="P" fill="#2F78CA" fill-rule="nonzero"></path>
    </g>
</svg>