<?xml version="1.0" encoding="UTF-8"?>
<svg width="13px" height="13px" viewBox="0 0 13 13" version="1.1" xmlns="http://www.w3.org/2000/svg" xmlns:xlink="http://www.w3.org/1999/xlink">
    <title>menu-edit</title>
    <g id="menu-edit" stroke="none" stroke-width="1" fill="none" fill-rule="evenodd">
        <path d="M3.2773245,8.54878037 C3.35005209,8.51824483 3.74038816,8.68095976 4.1741284,8.7665541 C4.96688695,8.92299714 5.93005613,9.1072127 6.5,9.1072127 C7.06619026,9.1072127 8.0055223,8.95651226 8.79536911,8.82639188 C9.27239398,8.74780619 9.70746494,8.58933222 9.7821255,8.62376897 C10.9446216,9.15996388 11.8392414,10.1192465 12.3189864,11.6702167 C11.018623,12.3712641 9.08379021,12.4144758 7.20801887,12.4154235 L5.8420633,12.4153583 C4.0331383,12.413992 2.01231249,12.3678303 0.675403403,11.6475969 C1.15445808,10.0076993 2.07382271,9.05408463 3.27732442,8.54878041 Z" id="Oval-5-Copy-2" stroke="#2F78CA" stroke-width="1.17"></path>
        <path d="M6.51186164,0.585 C7.10761083,0.585 7.60401879,0.894260005 7.97554679,1.35993454 C8.43168128,1.93165517 8.70724063,2.73411807 8.76293553,3.59113894 C8.7809065,3.86767251 8.81223472,4.13691014 8.84255708,4.39544773 C8.91483627,5.0117217 9.09418072,5.6121046 8.69063334,5.98049095 C8.34620784,6.2949067 7.66612407,6.415 6.49577978,6.415 C5.32655525,6.415 4.64743358,6.29558716 4.30476766,5.98137244 C3.90334919,5.61328334 4.08660295,5.01337235 4.16176022,4.39825304 C4.19334751,4.13972908 4.22599337,3.87050446 4.24531807,3.59398544 C4.30527063,2.73611882 4.5847066,1.93291852 5.04365872,1.36074985 C5.4175129,0.894671497 5.91547838,0.585 6.51186164,0.585 Z" id="Oval-5-Copy-3" stroke="#2F78CA" stroke-width="1.17"></path>
    </g>
</svg>