<?xml version="1.0" encoding="UTF-8"?>
<svg width="13px" height="13px" viewBox="0 0 13 13" version="1.1" xmlns="http://www.w3.org/2000/svg" xmlns:xlink="http://www.w3.org/1999/xlink">
    <title>menu_btn_transfer</title>
    <g id="menu_btn_transfer" stroke="none" stroke-width="1" fill="none" fill-rule="evenodd">
        <path d="M12.8037263,5.16054909 L7.98292138,2.05026243 C7.88000139,1.98381891 7.7528091,1.98325076 7.64923823,2.04855798 C7.54577584,2.11395492 7.4819085,2.23532948 7.48180002,2.36684102 L7.4808237,3.77124546 C7.3469328,3.81206247 7.2323858,3.88171408 7.06456048,3.90341485 C3.98645533,4.30143128 2.11754643,5.47946008 1.21937885,6.50670331 C0.380287208,7.46638081 -0.0340211968,8.76874357 0.00218385905,10.0468694 C0.00852991379,10.2707799 0.0313648629,10.4856598 0.0528709373,10.6663312 C0.0742414122,10.845956 0.211251107,10.9815343 0.375543413,10.9856907 C0.544147782,10.9856907 0.607649602,10.8441956 0.710826638,10.6825085 C3.23190324,6.73176834 7.09013454,7.19476161 7.40738303,7.19314687 C7.41698348,7.19314687 7.43754035,7.19335619 7.46428057,7.19374493 L7.4651484,8.51813007 C7.46522976,8.64886414 7.52839199,8.76970045 7.6309323,8.8353067 C7.73349974,8.90097276 7.85998691,8.90151101 7.96301538,8.83677193 L12.8003905,5.79633769 C12.9037444,5.73138929 12.9677745,5.61064269 12.9684322,5.47946008 C12.9691847,5.34836718 12.9063751,5.2268132 12.8037263,5.16054909 Z" id="Shape" fill="#2F78CA" fill-rule="nonzero"></path>
    </g>
</svg>