<?xml version="1.0" encoding="UTF-8"?>
<svg width="13px" height="13px" viewBox="0 0 13 13" version="1.1" xmlns="http://www.w3.org/2000/svg" xmlns:xlink="http://www.w3.org/1999/xlink">
    <title>menu_btn_switch</title>
    <g id="menu_btn_switch" stroke="none" stroke-width="1" fill="none" fill-rule="evenodd">
        <path d="M9.49966619,0 C10.3280933,8.05656105e-16 10.9996662,0.671572875 10.9996662,1.5 L11.000616,8.47939113 C10.7088668,8.67479649 10.3560775,8.85082271 9.94139153,8.99964878 L9.94088193,1.97530627 C9.94088193,1.42302152 9.49316668,0.97530627 8.94088193,0.97530627 L8.94088193,0.97530627 L4.05878426,0.97530627 C3.50649951,0.97530627 3.05878426,1.42302152 3.05878426,1.97530627 L3.05878426,1.97530627 L3.05726634,8.99928681 C2.64301678,8.85053732 2.2905629,8.67463809 1.99905022,8.47939113 L2,1.5 C2,0.671572875 2.67157288,3.74224199e-16 3.5,0 L9.49966619,0 Z" id="Combined-Shape" fill="#2F78CA" fill-rule="nonzero"></path>
        <path d="M0.225447218,9 C0.32666424,9 0.364785822,9.06298687 0.426725334,9.13496225 C1.89136346,10.8369113 4.10777248,10.6987929 4.42185135,10.6887624 L4.44681984,10.6882593 C4.4525832,10.6882593 4.46492396,10.6881661 4.48097672,10.687993 L4.4814977,10.0984401 C4.48154654,10.0402435 4.51946426,9.98645297 4.58102153,9.9572482 C4.64259508,9.92801681 4.7185282,9.9277772 4.78037852,9.95659595 L7.68436441,11.3100519 C7.7464101,11.3389639 7.7848488,11.3927145 7.78524362,11.4511107 C7.78569539,11.509467 7.74798933,11.563577 7.68636693,11.5930746 L4.79232855,12.9776256 C4.73054335,13.007203 4.65418693,13.007456 4.59201099,12.9783843 C4.52990018,12.9492727 4.49155916,12.8952426 4.49149404,12.8366999 L4.49090793,12.2115262 C4.41053019,12.1933564 4.34176503,12.1623508 4.24101569,12.1526907 C2.39315944,11.9755128 1.27121109,11.4511107 0.732020749,10.9938311 C0.228295026,10.5666286 -0.0204236952,9.98687892 0.00131102006,9.41791839 C0.00512070048,9.31824414 0.0188290377,9.22258987 0.0317396214,9.14216361 C0.0445688016,9.06220325 0.126818825,9.00185028 0.225447218,9 Z M12.7745528,9.00000002 C12.8731812,9.00181036 12.9554312,9.06216333 12.9682604,9.1421237 C12.981171,9.22254996 12.9948793,9.31820422 12.998689,9.41787848 C13.0204237,9.98683901 12.771705,10.5665887 12.2679793,10.9937912 C11.7287889,11.4510708 10.6800568,11.95424 8.8322006,12.1314179 C8.81078377,12.1334714 8.30448274,12.1751031 8.30448274,12.0615977 C8.30448274,11.9283613 8.72545694,11.7097317 8.72995878,11.455333 C8.73312529,11.2763936 8.4501693,11.0656301 8.30448274,10.8630131 C8.22069545,10.7464839 8.29220896,10.6881306 8.51902328,10.6879531 C8.53507604,10.6881262 8.5474168,10.6882193 8.55318016,10.6882193 L8.57814865,10.6887225 C8.89222752,10.698753 11.1086365,10.8368714 12.5732747,9.13492234 C12.6352142,9.06294696 12.6733358,8.9999601 12.7745528,9.00000002 Z" id="Combined-Shape" fill="#2F78CA" fill-rule="nonzero"></path>
        <path d="M4.5,2 L9,2 L9,2 C7.85495457,2.55268326 6.85495457,3.6732862 6,5.36180881 C5.02162124,7.29409238 4.35495457,8.16493285 4,7.97433021 L4,2.5 C4,2.22385763 4.22385763,2 4.5,2 Z" id="Rectangle" fill="#2F78CA" fill-rule="nonzero" opacity="0.5"></path>
    </g>
</svg>